<svg width="136" height="80" viewBox="0 0 136 80" fill="none" xmlns="http://www.w3.org/2000/svg">
<path d="M50.7809 4.68849C50.5823 4.75607 49.9787 4.93348 49.4307 5.09398C48.8826 5.25449 48.1519 5.47413 47.8024 5.5755C47.453 5.68532 46.8652 5.85428 46.4919 5.95565C44.4348 6.52165 42.5206 7.2735 40.9004 8.16896C39.566 8.90391 39.3198 9.05597 38.9862 9.29251C38.8115 9.41078 38.3508 9.74024 37.9537 10.0106C37.5645 10.2809 37.223 10.5259 37.1991 10.5512C37.1753 10.5766 36.8735 10.83 36.524 11.1088C35.3882 12.0127 34.0856 13.2545 33.1564 14.3189C32.9101 14.5892 32.5766 14.9525 32.4177 15.113C32.2509 15.2735 32.1159 15.4509 32.1159 15.51C32.1159 15.5607 32.0682 15.6283 32.0126 15.6536C31.9173 15.6874 30.6227 17.3685 30.1858 18.0106C30.0588 18.2049 29.9634 18.2302 28.359 18.4076C27.4377 18.509 26.4767 18.6104 26.2384 18.6357C26.0001 18.661 25.2456 18.7709 24.5704 18.8891C23.8953 19.0074 22.966 19.151 22.5054 19.2186C22.0447 19.2862 21.2425 19.4382 20.7183 19.5565C20.1941 19.6748 19.6222 19.793 19.4475 19.8184C19.0186 19.8775 16.9138 20.3844 15.6192 20.7476C15.0473 20.9081 14.531 21.0349 14.4754 21.0349C14.3643 21.0349 13.3158 21.3643 11.6638 21.9303C11.1872 22.0908 10.7583 22.2175 10.7186 22.2175C10.6868 22.2175 10.3453 22.3443 9.96407 22.4963C9.59077 22.6568 9.12216 22.8427 8.9236 22.9187C8.41527 23.113 7.59719 23.4594 7.13652 23.6874C6.92207 23.7973 6.40581 24.0507 6.00868 24.245C5.60361 24.4477 5.27002 24.6336 5.27002 24.6674C5.27002 24.7772 5.46064 25.1151 5.90542 25.7994C6.1437 26.1626 6.41375 26.5766 6.50112 26.7286C6.88236 27.3622 7.93078 28.7899 8.15317 28.9588C8.22465 29.018 8.28819 29.1109 8.28819 29.1616C8.28819 29.2123 8.39145 29.3728 8.51853 29.5164C8.64561 29.66 9.01097 30.0824 9.32867 30.4541C10.4247 31.7297 12.3707 33.7402 13.3079 34.5681C13.4509 34.6948 13.7844 34.999 14.0466 35.2355C14.7296 35.8606 16.5961 37.339 16.6914 37.339C16.7391 37.339 16.7867 37.3728 16.8026 37.415C16.8264 37.4995 18.2482 38.5217 18.3276 38.5217C18.3594 38.5217 18.5023 38.6146 18.6374 38.7244C18.7803 38.8342 19.0424 39.0201 19.2251 39.1299C19.4078 39.2397 19.8367 39.4931 20.1782 39.6959C21.2822 40.3464 23.6412 41.5628 23.808 41.5628C23.8397 41.5628 24.0621 41.6558 24.3004 41.774C24.7134 41.9768 26.3337 42.5935 26.8341 42.7455C26.9691 42.7793 27.4139 42.9398 27.8269 43.0919C28.7324 43.4298 29.7569 43.7846 31.0436 44.2154C31.5678 44.3928 32.3065 44.6547 32.6798 44.7899C33.061 44.925 33.4899 45.0686 33.6329 45.1109C33.903 45.1785 35.4518 45.7445 37.1197 46.378C37.6201 46.5723 38.2317 46.8004 38.4699 46.8849C38.7082 46.9694 39.1451 47.1552 39.4389 47.2988C39.7328 47.4425 40.0108 47.5607 40.0584 47.5607C40.0982 47.5607 40.4 47.6959 40.7256 47.8564C41.0513 48.0169 41.3451 48.1521 41.369 48.1521C41.4722 48.1521 43.8312 49.4361 44.3713 49.7909C45.1099 50.264 45.5468 50.5681 45.6977 50.7117C45.7612 50.7709 46.0313 50.999 46.2934 51.2101C46.8493 51.6579 47.9375 52.8575 48.2711 53.3812C49.2877 54.9863 49.6213 56.9715 49.2083 58.9736C49.0415 59.8184 48.557 61.1447 48.2234 61.7191C48.1201 61.8965 48.009 62.1077 47.9851 62.1753C47.9454 62.2936 47.5165 62.9609 46.889 63.8817C46.7461 64.1098 46.5952 64.2872 46.5713 64.2872C46.5475 64.2872 46.4602 63.8395 46.3887 63.2904C46.1504 61.4319 45.2688 59.0919 44.2283 57.5122C43.7676 56.8025 43.0766 55.9578 42.4253 55.2904C41.774 54.623 40.6859 53.6938 40.2967 53.4741C40.1855 53.415 40.0823 53.339 40.0584 53.3052C40.0346 53.2714 39.7725 53.094 39.4628 52.9081C39.1609 52.7307 38.8194 52.5111 38.7082 52.4351C38.597 52.359 38.4699 52.3252 38.4302 52.359C38.3826 52.3928 38.1046 52.9335 37.8028 53.5586C37.5009 54.1837 37.1038 55.0116 36.9132 55.4002C36.7226 55.7888 36.5637 56.1774 36.5637 56.2703C36.5637 56.3802 36.667 56.49 36.9052 56.5998C37.3262 56.811 37.9616 57.2418 38.3031 57.5459C38.4461 57.6811 38.5891 57.7825 38.6129 57.7825C38.6685 57.7825 39.9631 59.1172 40.265 59.4805C40.8527 60.207 41.5199 61.5079 41.8535 62.5977C42.2903 64 42.3062 64.1521 42.3141 65.9768C42.3141 67.9535 42.2824 68.1478 41.7105 69.9303C41.496 70.6146 41.2498 71.4002 41.1704 71.679C41.0274 72.1859 40.813 72.8701 40.3205 74.3231C40.0267 75.1933 39.987 75.4805 40.1776 75.4044C40.2411 75.3791 40.8606 74.9483 41.5516 74.4583C42.2347 73.9599 43.299 73.1911 43.9106 72.7519C44.5222 72.3126 45.102 71.8902 45.2052 71.8142C46.476 70.8765 48.3346 69.0602 49.4942 67.6156C50.5982 66.2471 50.5823 66.264 51.6943 64.4139C52.282 63.4509 53.0128 61.5333 53.3384 60.1225C53.5846 59.0496 53.6005 58.9398 53.6005 57.2756C53.6005 55.5945 53.5926 55.51 53.3464 54.4879C52.9254 52.7392 52.0597 50.9652 51.0986 49.8332C50.217 48.8025 48.8826 47.4762 48.7317 47.4762C48.6841 47.4762 48.6126 47.4256 48.5808 47.3664C48.5173 47.2566 47.2306 46.2936 47.1432 46.2936C47.1194 46.2936 47.04 46.2344 46.9764 46.1669C46.7858 45.9894 45.8009 45.415 44.4745 44.7054C43.3784 44.1225 42.9257 43.9113 41.8058 43.4213C41.5675 43.32 41.1227 43.1257 40.813 42.9905C40.5112 42.8553 40.114 42.6948 39.9393 42.6273C39.7646 42.5681 39.1609 42.3316 38.5891 42.1119C38.0251 41.8923 37.3818 41.6558 37.1594 41.5882C36.945 41.5122 36.4366 41.3263 36.0316 41.1658C35.6265 41.0137 35.2611 40.887 35.2055 40.887C35.1579 40.887 34.7687 40.7603 34.3477 40.6082C33.9268 40.4562 33.1722 40.1859 32.6719 40.0085C27.5648 38.2598 25.468 37.4572 24.3878 36.8659L24.086 36.6969L24.769 36.0887C25.3726 35.5481 26.3893 34.3569 26.4687 34.095C26.4846 34.0444 26.6196 33.8247 26.7626 33.6135C26.9135 33.3939 27.0326 33.1996 27.0326 33.1742C27.0326 33.1405 27.1438 32.9293 27.2709 32.6843C27.4854 32.3041 27.6522 31.8986 27.7951 31.4171C27.8269 31.3242 27.668 31.2059 27.1756 30.9778C26.8103 30.8004 26.4925 30.6653 26.4608 30.6653C26.4211 30.6653 26.1351 30.5385 25.8174 30.378C25.4997 30.226 25.1344 30.0739 24.9993 30.0401C24.777 29.9979 24.7611 30.0148 24.4513 30.7244C23.6729 32.5238 22.275 33.9599 20.901 34.3738L20.3847 34.5343L20.0591 34.3062C19.8843 34.188 19.3204 33.7656 18.8121 33.3685C18.2958 32.9715 17.7796 32.5745 17.6604 32.4815C16.7629 31.7973 14.4993 29.6177 13.2205 28.1985C12.0133 26.8638 11.8226 26.6188 11.9577 26.5766C12.0133 26.5597 12.5295 26.3907 13.0934 26.2049C14.3484 25.7909 15.365 25.4699 15.7939 25.3516C15.9687 25.3094 16.5564 25.1489 17.1044 24.9968C17.6525 24.8448 18.2561 24.7012 18.4547 24.6674C18.6532 24.6336 19.3125 24.49 19.924 24.3464C22.7437 23.6874 27.0882 23.0201 30.17 22.7666C32.5289 22.5808 32.37 22.623 32.7036 22.1077C33.6806 20.5956 34.0777 20.0465 34.999 18.9145C35.9919 17.6896 38.1125 15.5016 38.7559 15.0285C38.8512 14.9694 39.2165 14.6737 39.5739 14.378C39.9314 14.0908 40.2491 13.8543 40.2808 13.8543C40.3205 13.8543 40.4159 13.7867 40.5032 13.7022C40.5906 13.6177 40.7574 13.4741 40.8765 13.3897L41.0989 13.2376L40.9321 13.6938C40.8368 13.9388 40.7494 14.1668 40.7256 14.2006C40.7097 14.2344 40.6621 14.4287 40.6224 14.6315C40.5827 14.8342 40.4556 15.3326 40.3444 15.755C39.7487 17.9514 39.7646 21.9557 40.3761 24.1521C40.5112 24.6167 40.6144 25.0391 40.6144 25.0898C40.6144 25.2249 41.1227 26.5343 41.4563 27.2524C41.5993 27.5734 41.7264 27.8691 41.7264 27.9029C41.7264 27.9366 41.8535 28.1647 42.0044 28.4182C42.1553 28.6716 42.2824 28.8997 42.2824 28.925C42.2824 29.0264 43.5135 30.9018 43.7597 31.1721C43.9106 31.3411 44.0297 31.51 44.0297 31.5607C44.0297 31.7888 47.588 35.4805 47.8104 35.4805C47.8342 35.4805 47.9931 35.6072 48.1599 35.7508C48.4378 36.0127 48.9382 36.4013 49.6133 36.8743C49.7801 36.9926 49.9628 37.0855 50.0264 37.0855C50.0899 37.0855 50.2249 36.8912 50.3441 36.6547C50.4553 36.4182 50.6141 36.1225 50.7015 36.0127C50.7888 35.8944 50.8603 35.7592 50.8603 35.7255C50.8603 35.6832 50.9874 35.4467 51.1383 35.1932C51.2892 34.9398 51.4163 34.7033 51.4163 34.6779C51.4163 34.6441 51.5196 34.4667 51.6387 34.2724C51.9008 33.8585 52.1311 33.3854 52.1311 33.2503C52.1311 33.1996 51.9961 33.0729 51.8293 32.963C51.4957 32.7434 51.0271 32.4055 50.8762 32.2619C50.8127 32.2112 50.495 31.9409 50.1693 31.6621C49.8357 31.3833 49.2798 30.8596 48.9303 30.5048C48.2949 29.8627 46.889 28.1985 46.889 28.0887C46.889 28.0549 46.762 27.8775 46.6111 27.6832C46.4602 27.4974 46.3331 27.3115 46.3331 27.2777C46.3331 27.2355 46.2298 27.0412 46.0948 26.8384C45.102 25.2756 44.2918 22.8173 44.125 20.849C44.0059 19.472 44.1171 18.4161 44.5936 16.4055C44.9749 14.792 46.206 12.1394 47.2306 10.7202C47.3497 10.5512 47.445 10.3738 47.445 10.3231C47.445 10.2724 47.4689 10.2218 47.5086 10.2049C47.5403 10.188 47.8342 9.79937 48.1599 9.33475C48.4855 8.87012 48.7873 8.44774 48.835 8.39705C48.8747 8.34636 49.24 7.8395 49.6292 7.26505C50.0264 6.69906 50.4632 6.08237 50.6062 5.91341C50.7412 5.73601 50.8603 5.5755 50.8603 5.54171C50.8603 5.50792 50.9398 5.38965 51.043 5.27139C51.1463 5.16156 51.2892 4.95037 51.3687 4.81521C51.5037 4.56178 51.5037 4.56178 51.321 4.57022C51.2177 4.57022 50.9795 4.62936 50.7809 4.68849Z" fill="black"/>
<path d="M73.9495 14.4625C73.6953 14.7244 73.1473 15.5269 72.8614 16.0676C72.5357 16.7096 71.8765 17.8247 71.8368 17.8162C71.8129 17.8162 71.6144 17.5882 71.3999 17.3094C71.1855 17.0391 70.971 16.811 70.9154 16.811C70.8598 16.811 70.7566 16.7349 70.6772 16.642C70.1212 15.9915 67.6669 15.9324 66.3882 16.5491C66.0943 16.6927 65.8242 16.811 65.7845 16.811C65.6416 16.811 64.2834 17.7064 63.6162 18.2386C62.7425 18.9398 61.4638 20.2661 60.9952 20.9504C60.4868 21.6938 59.915 22.6483 59.6608 23.189C59.0175 24.5153 58.8745 26.0528 59.2954 27.0327C59.4861 27.4551 60.1612 28.2999 60.32 28.2999C60.3597 28.2999 60.5583 28.4266 60.7648 28.5787C61.2811 28.9588 63.6559 30.0739 63.9419 30.0739C64.0769 30.0739 65.6018 30.8173 66.0705 31.1214C66.682 31.51 67.381 32.2112 67.5796 32.6505C67.6828 32.8785 67.7384 33.1573 67.7384 33.4952C67.7384 33.9261 67.6907 34.095 67.4207 34.6103C66.4994 36.3928 64.2596 38.226 61.6782 39.2988C60.3597 39.8395 59.0889 39.9324 58.5091 39.51C57.8499 39.0369 57.7069 37.9218 58.1279 36.5364C58.3582 35.7677 58.9221 34.5681 59.2081 34.2471C59.2875 34.1542 59.359 34.0443 59.359 33.9936C59.359 33.8838 60.1374 33.0306 60.2327 33.0306C60.3597 33.0306 60.328 32.6336 60.185 32.49C60.0262 32.3126 59.7243 32.2365 59.4781 32.3041C59.1604 32.3886 58.4535 33.2334 57.4845 34.6695C56.865 35.5903 56.0946 37.2291 55.7769 38.3189C55.5386 39.1383 55.5068 39.3411 55.5068 40.2112C55.5068 41.1066 55.5227 41.2165 55.7213 41.6135C56.039 42.2555 56.4838 42.661 57.1986 42.9482C57.7943 43.2017 57.8499 43.2101 59.1604 43.2017C60.4233 43.2017 60.5742 43.1848 61.5194 42.9313C65.586 41.8247 69.732 38.7159 70.9234 35.9028C71.1378 35.3875 71.1537 35.2862 71.1537 34.2978C71.1537 33.3263 71.1378 33.1911 70.9234 32.6505C70.5421 31.6621 69.7479 30.7244 68.6518 29.9641C68.1752 29.6346 66.9044 28.9757 65.9116 28.5533C63.1238 27.3537 62.2183 26.6441 62.3136 25.7318C62.3613 25.284 62.7902 24.2534 63.1317 23.755C64.1245 22.302 64.6487 21.6938 65.9275 20.4688C66.5311 19.9028 67.6113 19.0158 68.0402 18.7371C68.5803 18.3907 69.1522 18.095 69.4143 18.0105C70.2085 17.7656 70.4071 17.943 70.4627 18.9229C70.5024 19.6747 70.28 20.8236 69.8273 22.226C69.7002 22.6315 69.5652 23.0876 69.5255 23.2397C69.4858 23.4002 69.3428 23.8648 69.2157 24.2703C68.9298 25.132 68.8107 26.416 68.9616 27.0074C69.1125 27.6072 69.6923 28.2576 70.3753 28.5956C70.701 28.7561 71.3443 28.7561 71.5508 28.5956C71.7017 28.4688 71.7017 28.4604 71.5588 28.207C71.2649 27.6832 71.527 26.2809 72.2498 24.4984C72.7978 23.1383 73.6874 21.2883 73.9813 20.8743C74.0686 20.7645 74.1322 20.6378 74.1322 20.5871C74.1322 20.5449 74.2593 20.3168 74.4102 20.0971C74.5611 19.869 74.6882 19.6579 74.6882 19.6241C74.6882 19.5987 74.7994 19.4213 74.9264 19.227C75.0615 19.0327 75.403 18.5512 75.681 18.1542C75.959 17.7571 76.3799 17.2249 76.6182 16.963C76.8565 16.7096 77.0789 16.4139 77.1027 16.321C77.2695 15.7719 76.1814 14.6652 75.1568 14.3358C74.4975 14.1246 74.2751 14.1499 73.9495 14.4625Z" fill="black"/>
<path d="M117.363 17.6558C117.03 17.8416 116.069 18.8131 116.069 18.9736C116.069 19.0243 115.989 19.1341 115.902 19.2271C115.806 19.3115 115.52 19.7255 115.266 20.1479C115.004 20.5618 114.75 20.9757 114.694 21.0602C114.544 21.2968 114.027 22.226 113.821 22.6399C113.718 22.8511 113.495 23.282 113.328 23.6114C113.169 23.9324 112.955 24.3717 112.852 24.5829C112.749 24.7941 112.59 25.132 112.486 25.3432C112.121 26.1035 111.819 26.7709 111.232 28.131C110.58 29.6516 109.492 32.3886 109.206 33.2418C109.151 33.4277 109.008 33.8247 108.896 34.1289C108.38 35.5312 107.888 37.1785 107.888 37.4826C107.888 37.7023 108.253 38.0402 108.738 38.2767C109.19 38.4963 110.096 38.5808 110.278 38.4203C110.398 38.3274 110.691 37.3728 110.93 36.3591C110.993 36.0549 111.057 35.9789 111.422 35.7931C111.66 35.6579 112.161 35.5058 112.621 35.4214C113.71 35.2271 114.647 35.3622 115.497 35.8353C115.814 36.0127 116.164 36.1563 116.275 36.1563C116.728 36.1563 117.498 34.83 117.498 34.0528C117.498 33.7487 117.474 33.7149 117.117 33.5544C116.585 33.3094 116.132 33.1996 115.362 33.132L114.694 33.0729L115.123 32.5998C115.362 32.3379 115.798 31.8395 116.092 31.5016C116.386 31.1553 116.752 30.7413 116.895 30.5808C117.3 30.1331 118.65 28.3844 119.126 27.7001C119.69 26.8807 119.802 26.2049 119.428 25.8416C119.103 25.5375 118.713 25.2587 118.594 25.2587C118.539 25.2587 118.42 25.1996 118.34 25.132C117.959 24.8279 117.53 25.056 116.362 26.188C115.949 26.585 114.131 28.773 113.138 30.074C113.003 30.2429 113.019 30.1753 113.201 29.736C113.551 28.8997 114.361 27.2693 114.758 26.6104C114.869 26.4245 114.957 26.2471 114.957 26.2133C114.957 26.188 115.084 25.9599 115.235 25.7065C115.52 25.2418 115.798 24.7857 116.394 23.7804C116.585 23.4509 116.847 23.0285 116.982 22.8427C117.109 22.6484 117.379 22.2514 117.578 21.9557C118.173 21.0687 119.142 19.9113 119.555 19.5988C119.945 19.3031 120.095 19.0159 119.984 18.8047C119.833 18.5175 118.42 17.6473 117.935 17.5375C117.768 17.5037 117.594 17.5375 117.363 17.6558Z" fill="black"/>
<path d="M80.1684 19.0158C79.6045 19.2693 78.4369 20.8997 77.4282 22.8511C77.0867 23.5185 76.6498 24.3802 76.5069 24.6674C76.2289 25.2249 75.2599 27.4129 74.9263 28.2154C74.7515 28.6547 74.4974 29.2629 74.3703 29.5671C74.2432 29.8712 73.9891 30.4963 73.8143 30.9609C73.6316 31.4256 73.3854 32.0676 73.2583 32.397C73.1313 32.7181 72.9804 33.1404 72.9168 33.3263C72.8533 33.5121 72.7183 33.9092 72.5991 34.2133C71.9558 35.962 71.2727 38.1668 71.2727 38.4879C71.2727 38.8427 71.3918 38.9778 71.9955 39.3157C72.9804 39.8564 73.7031 39.7888 74.0129 39.1468C74.2591 38.6146 74.8707 37.4741 74.9739 37.339C75.0295 37.2714 75.1407 37.0771 75.2281 36.9166C75.5299 36.3421 76.2686 35.151 77.0072 34.0359C77.1502 33.8163 77.3408 33.529 77.4282 33.4023C77.6585 33.0391 78.6116 31.8311 78.8102 31.6452C78.977 31.4847 78.977 31.4931 78.7864 32.0676C78.286 33.5966 78.0954 34.3147 77.9842 35.0158C77.7221 36.7307 77.8889 37.1362 79.0961 37.736C79.5171 37.9388 79.668 37.9641 80.4146 37.9726C81.2168 37.9726 81.2645 37.9641 81.606 37.7191C82.3129 37.2123 83.6869 35.6241 84.4971 34.3992C84.9021 33.7825 85.3231 33.0813 85.4264 32.8617C85.474 32.7434 85.5614 32.5913 85.617 32.5238C85.6726 32.4562 85.9109 31.9747 86.1571 31.4678C86.7607 30.2091 86.7607 29.7867 86.1888 29.4741C85.7043 29.2123 85.5058 29.2798 85.1563 29.8205C84.9975 30.0739 84.8624 30.3274 84.8624 30.378C84.8466 30.623 83.0833 33.4023 82.4638 34.1457C81.884 34.8553 81.0103 35.7001 80.629 35.9366C80.4067 36.0803 80.4067 36.0803 80.4067 35.8775C80.4067 35.32 81.5027 32.2788 82.3129 30.5808C82.44 30.3274 82.6147 29.8796 82.71 29.6009C82.8689 29.1109 82.8689 29.0602 82.7497 28.7392C82.5273 28.1478 81.8363 27.6663 81.0738 27.5818C80.2875 27.4805 79.9619 27.6494 78.977 28.6547C78.6116 29.0264 77.73 30.0824 77.4044 30.5385C77.0867 30.9863 76.2765 32.1352 76.1177 32.3548C75.9747 32.5491 76.3321 31.5354 76.7769 30.4625C77.0946 29.6938 78.2383 27.3284 78.4528 26.9989C78.564 26.8215 78.6593 26.6357 78.6593 26.5935C78.6593 26.5597 78.7784 26.3231 78.9293 26.0781C79.0723 25.8416 79.3424 25.3939 79.5171 25.0898C80.3511 23.6536 81.5266 22.0063 82.1699 21.3559L82.7338 20.7899L82.6782 20.3844C82.6147 19.886 82.289 19.4889 81.6775 19.2017C81.193 18.9652 80.4702 18.8722 80.1684 19.0158Z" fill="black"/>
<path d="M103.996 23.1721C103.766 23.2988 103.416 23.924 102.543 25.8078C101.399 28.2661 100.668 30.1415 100.184 31.8902C100.104 32.1689 99.9533 32.718 99.8341 33.1151C99.4688 34.3822 99.0637 36.2492 99.016 36.8405C98.9525 37.6431 99.0399 37.7782 99.985 38.2513C100.414 38.4709 100.898 38.547 101.153 38.4456C101.335 38.3696 101.399 38.2344 101.645 37.3643C102.058 35.9113 102.09 35.8184 102.296 35.3284C102.4 35.0834 102.487 34.8469 102.487 34.7962C102.487 34.585 103.377 32.8701 104.155 31.5945C104.409 31.1806 105.307 29.9387 105.577 29.6262L105.783 29.3896L105.823 30.5385L105.863 31.6959L106.141 31.9409C106.609 32.3632 107.189 32.5406 108.11 32.5575C108.754 32.566 108.944 32.5406 109 32.4393C109.135 32.2112 109.087 32.0253 108.841 31.8902C108.396 31.6452 108.341 30.7835 108.603 28.3675C108.722 27.3031 108.746 26.83 108.69 26.6695C108.595 26.416 108.158 26.095 107.689 25.943C107.515 25.8838 107.157 25.7402 106.887 25.622C106.172 25.3094 106.021 25.3601 105.608 26.019C105.203 26.6779 104.83 27.2693 104.671 27.4973C104.496 27.7508 104.703 27.227 105.354 25.7909C106.125 24.076 106.093 23.7635 105.14 23.3073C104.592 23.0454 104.306 23.0032 103.996 23.1721Z" fill="black"/>
<path d="M94.9574 26.416C94.8621 26.492 94.5285 26.8891 94.2188 27.2946C93.909 27.7085 93.6469 28.0464 93.631 28.0464C93.6152 28.0464 93.2657 27.8268 92.8606 27.5565C92.4555 27.2861 91.971 27.0158 91.7963 26.9651C91.0815 26.7455 90.4222 26.8975 89.7948 27.4297C89.4215 27.7339 88.5399 28.756 88.2301 29.2207C87.8409 29.812 87.1658 30.9017 87.0546 31.1298C85.6885 33.8416 84.9578 36.5702 85.3628 37.4149C85.482 37.6515 86.0141 38.1583 86.3557 38.3526C86.6575 38.5216 87.5709 38.775 87.8727 38.775C88.2857 38.775 88.5637 38.5385 89.6121 37.2967C89.8901 36.9757 91.28 35.0073 91.6454 34.4413C91.7645 34.2555 91.8678 34.1288 91.8837 34.1457C91.9075 34.1626 91.8678 34.3653 91.7963 34.5934C91.7328 34.8299 91.6613 35.4382 91.6295 35.945C91.5739 37.0517 91.6533 37.322 92.2173 37.8373C92.7574 38.3526 93.0671 38.4794 93.7502 38.4794C94.3062 38.4794 94.3776 38.4625 94.8224 38.1499C95.4499 37.7191 95.9106 37.2798 96.4745 36.5955C97.0305 35.9112 97.8247 34.8215 97.9597 34.5427C98.0153 34.4329 98.0868 34.3231 98.1186 34.2977C98.1901 34.2386 99.0717 32.8025 99.0717 32.7434C99.0717 32.718 99.1988 32.5068 99.3497 32.2787C99.5006 32.0591 99.6277 31.8394 99.6277 31.8141C99.6277 31.7803 99.7468 31.5522 99.8898 31.3157C100.462 30.3695 100.74 29.8289 100.74 29.6768C100.732 29.2122 99.7945 28.6969 99.4212 28.9588C99.3656 28.9926 99.1988 29.2629 99.032 29.567C97.3402 32.7434 95.4817 35.3284 94.7589 35.5227L94.5444 35.5818V34.9904C94.5444 34.5681 94.608 34.2217 94.7509 33.774C94.8621 33.4361 94.9972 33.0052 95.0607 32.8194C95.291 32.0422 96.9907 28.4519 97.2449 28.1816C97.2926 28.1309 97.3243 27.9535 97.3243 27.7761C97.3243 26.8806 95.6326 25.9176 94.9574 26.416ZM92.114 29.246C92.3841 29.6515 92.257 30.2851 91.8281 30.7835C91.7487 30.8764 91.6851 30.9778 91.6851 31.0116C91.6851 31.0454 91.6375 31.1298 91.5819 31.189C91.4786 31.2988 90.3587 32.8278 90.0331 33.3093C89.9298 33.453 89.7868 33.6388 89.7154 33.7148C89.6439 33.7909 89.4056 34.0781 89.1832 34.3569C88.9688 34.6272 88.6828 34.9398 88.5557 35.058L88.3254 35.2608L88.3731 34.9904C88.4604 34.5258 89.35 32.4308 89.7074 31.8479C89.7789 31.7296 90.0092 31.3495 90.2237 31.0031C90.7082 30.1921 91.6613 29.0601 91.844 29.0601C91.9313 29.0601 92.0505 29.1446 92.114 29.246Z" fill="black"/>
<path d="M88.6672 44.9842V47.2229H89.0249H89.3826V44.9842V42.7456H89.0249H88.6672V44.9842Z" fill="black"/>
<path d="M89.8584 43.0413V43.3369H90.4938H91.1292V45.2799V47.2229H91.4469H91.7646V45.2799V43.3369H92.4H93.0354V43.0413V42.7456H91.4469H89.8584V43.0413Z" fill="black"/>
<path d="M95.5931 43.8184C95.1881 43.9704 94.7592 44.5026 94.6241 45.0095C94.4256 45.7951 94.8148 46.7328 95.4899 47.113C95.9664 47.3833 96.6098 47.3748 97.1102 47.1045C97.4596 46.9187 97.4835 46.9187 97.4835 47.0623C97.4835 47.189 97.547 47.2228 97.7614 47.2228H98.0394V45.491V43.7592H97.7932C97.6264 43.7592 97.539 43.8099 97.5073 43.9113C97.4755 44.0549 97.4517 44.0549 97.1022 43.8775C96.6654 43.6494 96.1014 43.6241 95.5931 43.8184ZM96.8322 44.4688C97.2849 44.7223 97.4676 45.1615 97.3643 45.7951C97.2611 46.454 96.4271 46.8426 95.8155 46.5047C95.2993 46.2175 95.1086 45.4319 95.4343 44.8828C95.7123 44.4012 96.3636 44.2069 96.8322 44.4688Z" fill="black"/>
<path d="M99.5483 43.8606C99.3418 43.9788 99.0956 44.2069 98.9526 44.4181C98.7382 44.7476 98.7144 44.8574 98.7144 45.4065C98.7144 45.9556 98.7382 46.0654 98.9526 46.3949C99.3498 47.0031 100.073 47.2566 100.795 47.0538C101.01 46.9947 101.224 46.9018 101.288 46.8511C101.375 46.775 101.383 46.8088 101.335 47.0538C101.169 47.907 100.231 48.1605 99.6595 47.51C99.461 47.2904 99.3339 47.2228 99.1194 47.2228C98.7858 47.2228 98.7779 47.2819 98.9923 47.7296C99.2306 48.2196 99.7231 48.4984 100.358 48.5068C100.954 48.5068 101.153 48.4308 101.558 48.0591C101.963 47.6874 102.003 47.4255 102.01 45.3812V43.7592H101.78C101.621 43.7592 101.542 43.8099 101.51 43.9197C101.47 44.0802 101.462 44.0802 101.089 43.8775C100.597 43.6156 100.025 43.6071 99.5483 43.8606ZM100.851 44.4773C101.542 44.7814 101.542 45.9725 100.851 46.3189C100.279 46.6145 99.7389 46.4118 99.4689 45.8204L99.2862 45.4318L99.4371 45.0348C99.6754 44.4181 100.223 44.1985 100.851 44.4773Z" fill="black"/>
<path d="M103.654 43.793C102.971 44.0633 102.614 44.7222 102.661 45.6008C102.693 46.3019 102.979 46.8004 103.519 47.1129C103.821 47.2819 103.964 47.3157 104.409 47.2903C104.846 47.265 105.005 47.2143 105.282 47.0116C105.64 46.7412 105.95 46.2682 105.862 46.1245C105.791 45.9978 105.282 46.0232 105.211 46.1583C105.1 46.3695 104.599 46.6314 104.314 46.6314C103.964 46.6314 103.567 46.378 103.4 46.0485L103.281 45.7866L104.607 45.7697L105.942 45.7444L105.918 45.2375C105.886 44.3252 105.314 43.7507 104.393 43.7C104.147 43.6831 103.821 43.7254 103.654 43.793ZM104.766 44.4519C104.885 44.5026 105.052 44.6293 105.124 44.7222C105.402 45.077 105.33 45.1108 104.314 45.1108C103.789 45.1108 103.36 45.0855 103.36 45.0601C103.36 45.0348 103.416 44.9081 103.487 44.7814C103.702 44.3928 104.306 44.2407 104.766 44.4519Z" fill="black"/>
<path d="M107.467 43.8776C107.117 44.0634 107.094 44.0634 107.094 43.9198C107.094 43.7931 107.03 43.7593 106.816 43.7593H106.538V45.4911V47.2229H106.895H107.252V46.074V44.9251L107.522 44.6379C107.729 44.4183 107.864 44.3507 108.071 44.3507C108.746 44.3507 108.841 44.5703 108.841 46.0825V47.2229H109.206H109.572L109.54 45.9304C109.516 44.8153 109.484 44.6041 109.341 44.3C109.032 43.6833 108.182 43.489 107.467 43.8776Z" fill="black"/>
<path d="M111.105 43.8099C110.469 44.0549 110.112 44.6716 110.112 45.4994C110.112 46.5301 110.723 47.2312 111.676 47.2904C112.105 47.3242 112.24 47.2904 112.614 47.0961C113.074 46.8426 113.265 46.6146 113.344 46.2091C113.384 45.9641 113.384 45.9556 113.066 45.9556C112.82 45.9556 112.733 45.9979 112.701 46.1077C112.638 46.3189 112.09 46.6314 111.78 46.6314C111.422 46.6314 111.073 46.3949 110.898 46.0232C110.708 45.6177 110.708 45.3558 110.914 44.9334C111.081 44.5786 111.43 44.3505 111.804 44.3505C112.121 44.3505 112.574 44.5955 112.669 44.8152C112.741 44.9926 112.812 45.0264 113.074 45.0264C113.384 45.0264 113.384 45.0179 113.344 44.7729C113.178 43.9113 112.074 43.4297 111.105 43.8099Z" fill="black"/>
<path d="M113.527 43.793C113.527 43.8775 113.829 44.5955 114.329 45.6853C114.703 46.4963 114.869 46.9609 114.83 47.0707C114.806 47.1552 114.679 47.3664 114.544 47.5269C114.361 47.7465 114.242 47.8141 114.035 47.8141C113.773 47.8141 113.765 47.8226 113.765 48.1605V48.5068L114.139 48.4477C114.925 48.321 115.044 48.1858 115.751 46.547C116.013 45.9218 116.323 45.2122 116.426 44.9841C116.664 44.4435 116.863 43.9282 116.863 43.8352C116.863 43.793 116.72 43.7592 116.545 43.7592C116.267 43.7592 116.212 43.793 116.132 43.9873C116.085 44.1225 115.926 44.4942 115.783 44.8321C115.632 45.1615 115.513 45.4741 115.513 45.5248C115.513 45.5755 115.449 45.7275 115.37 45.8627L115.227 46.1161L115.1 45.8458C115.028 45.6937 114.798 45.17 114.591 44.6716L114.202 43.7592H113.869C113.678 43.7592 113.527 43.7761 113.527 43.793Z" fill="black"/>
</svg>
