<svg width="120" height="81" viewBox="0 0 120 81" fill="none" xmlns="http://www.w3.org/2000/svg">
<path d="M47.6249 4.69767C47.4374 4.76539 46.8674 4.94314 46.3499 5.10396C45.8324 5.26478 45.1424 5.48485 44.8124 5.58642C44.4824 5.69646 43.9274 5.86574 43.5749 5.96731C41.6324 6.53442 39.8249 7.28774 38.2949 8.18495C37.0349 8.92134 36.8024 9.0737 36.4874 9.3107C36.3224 9.4292 35.8874 9.7593 35.5124 10.0302C35.1449 10.301 34.8224 10.5465 34.7999 10.5719C34.7774 10.5973 34.4924 10.8512 34.1624 11.1305C33.0899 12.0362 31.8599 13.2804 30.9824 14.3469C30.7499 14.6178 30.4349 14.9818 30.2849 15.1426C30.1274 15.3034 29.9999 15.4811 29.9999 15.5404C29.9999 15.5912 29.9549 15.6589 29.9024 15.6843C29.8124 15.7181 28.5899 17.4025 28.1774 18.0458C28.0574 18.2405 27.9674 18.2659 26.4524 18.4436C25.5824 18.5452 24.6749 18.6468 24.4499 18.6722C24.2249 18.6976 23.5124 18.8076 22.8749 18.9261C22.2374 19.0446 21.3599 19.1885 20.9249 19.2562C20.4899 19.3239 19.7324 19.4763 19.2374 19.5948C18.7424 19.7133 18.2024 19.8318 18.0374 19.8572C17.6324 19.9164 15.6449 20.4243 14.4224 20.7882C13.8824 20.9491 13.3949 21.076 13.3424 21.076C13.2374 21.076 12.2474 21.4061 10.6874 21.9732C10.2374 22.1341 9.8324 22.261 9.7949 22.261C9.7649 22.261 9.4424 22.388 9.0824 22.5403C8.7299 22.7012 8.2874 22.8874 8.0999 22.9636C7.6199 23.1582 6.8474 23.5053 6.4124 23.7338C6.2099 23.8438 5.7224 24.0978 5.3474 24.2924C4.9649 24.4956 4.6499 24.6818 4.6499 24.7157C4.6499 24.8257 4.8299 25.1643 5.2499 25.8499C5.4749 26.2138 5.7299 26.6286 5.8124 26.7809C6.1724 27.4158 7.1624 28.8462 7.3724 29.0155C7.4399 29.0747 7.4999 29.1679 7.4999 29.2186C7.4999 29.2694 7.5974 29.4302 7.7174 29.5741C7.8374 29.718 8.1824 30.1412 8.4824 30.5137C9.5174 31.7918 11.3549 33.8063 12.2399 34.6358C12.3749 34.7627 12.6899 35.0674 12.9374 35.3044C13.5824 35.9308 15.3449 37.412 15.4349 37.412C15.4799 37.412 15.5249 37.4459 15.5399 37.4882C15.5624 37.5729 16.9049 38.597 16.9799 38.597C17.0099 38.597 17.1449 38.6901 17.2724 38.8002C17.4074 38.9102 17.6549 39.0964 17.8274 39.2065C17.9999 39.3165 18.4049 39.5704 18.7274 39.7736C19.7699 40.4253 21.9974 41.6442 22.1549 41.6442C22.1849 41.6442 22.3949 41.7373 22.6199 41.8558C23.0099 42.0589 24.5399 42.6768 25.0124 42.8292C25.1399 42.863 25.5599 43.0238 25.9499 43.1762C26.8049 43.5148 27.7724 43.8703 28.9874 44.302C29.4824 44.4797 30.1799 44.7421 30.5324 44.8775C30.8924 45.013 31.2974 45.1568 31.4324 45.1992C31.6874 45.2669 33.1499 45.834 34.7249 46.4688C35.1974 46.6635 35.7749 46.892 35.9999 46.9767C36.2249 47.0613 36.6374 47.2475 36.9149 47.3914C37.1924 47.5353 37.4549 47.6538 37.4999 47.6538C37.5374 47.6538 37.8224 47.7892 38.1299 47.95C38.4374 48.1109 38.7149 48.2463 38.7374 48.2463C38.8349 48.2463 41.0624 49.5329 41.5724 49.8884C42.2699 50.3624 42.6824 50.6671 42.8249 50.811C42.8849 50.8702 43.1399 51.0988 43.3874 51.3104C43.9124 51.759 44.9399 52.9609 45.2549 53.4857C46.2149 55.0939 46.5299 57.083 46.1399 59.089C45.9824 59.9354 45.5249 61.2643 45.2099 61.8399C45.1124 62.0177 45.0074 62.2293 44.9849 62.297C44.9474 62.4155 44.5424 63.0841 43.9499 64.0068C43.8149 64.2353 43.6724 64.413 43.6499 64.413C43.6274 64.413 43.5449 63.9644 43.4774 63.4143C43.2524 61.5521 42.4199 59.2075 41.4374 57.6247C41.0024 56.9137 40.3499 56.0673 39.7349 55.3986C39.1199 54.7299 38.0924 53.7989 37.7249 53.5788C37.6199 53.5195 37.5224 53.4434 37.4999 53.4095C37.4774 53.3756 37.2299 53.1979 36.9374 53.0117C36.6524 52.8339 36.3299 52.6139 36.2249 52.5377C36.1199 52.4615 35.9999 52.4276 35.9624 52.4615C35.9174 52.4954 35.6549 53.0371 35.3699 53.6634C35.0849 54.2898 34.7099 55.1193 34.5299 55.5086C34.3499 55.898 34.1999 56.2873 34.1999 56.3805C34.1999 56.4905 34.2974 56.6005 34.5224 56.7106C34.9199 56.9222 35.5199 57.3538 35.8424 57.6586C35.9774 57.794 36.1124 57.8956 36.1349 57.8956C36.1874 57.8956 37.4099 59.2329 37.6949 59.5969C38.2499 60.3248 38.8799 61.6283 39.1949 62.7202C39.6074 64.1253 39.6224 64.2776 39.6299 66.1059C39.6299 68.0865 39.5999 68.2812 39.0599 70.0672C38.8574 70.7528 38.6249 71.5399 38.5499 71.8193C38.4149 72.3271 38.2124 73.0127 37.7474 74.4686C37.4699 75.3404 37.4324 75.6282 37.6124 75.552C37.6724 75.5266 38.2574 75.0949 38.9099 74.604C39.5549 74.1046 40.5599 73.3344 41.1374 72.8942C41.7149 72.4541 42.2624 72.0309 42.3599 71.9547C43.5599 71.0152 45.3149 69.1953 46.4099 67.748C47.4524 66.3767 47.4374 66.3937 48.4874 64.54C49.0424 63.5751 49.7324 61.6537 50.0399 60.2402C50.2724 59.1652 50.2874 59.0552 50.2874 57.3877C50.2874 55.7033 50.2799 55.6187 50.0474 54.5945C49.6499 52.8424 48.8324 51.0649 47.9249 49.9307C47.0924 48.898 45.8324 47.5692 45.6899 47.5692C45.6449 47.5692 45.5774 47.5184 45.5474 47.4591C45.4874 47.3491 44.2724 46.3842 44.1899 46.3842C44.1674 46.3842 44.0924 46.3249 44.0324 46.2572C43.8524 46.0794 42.9224 45.5039 41.6699 44.7929C40.6349 44.2088 40.2074 43.9972 39.1499 43.5063C38.9249 43.4047 38.5049 43.2101 38.2124 43.0746C37.9274 42.9392 37.5524 42.7784 37.3874 42.7107C37.2224 42.6514 36.6524 42.4144 36.1124 42.1944C35.5799 41.9743 34.9724 41.7373 34.7624 41.6696C34.5599 41.5934 34.0799 41.4072 33.6974 41.2464C33.3149 41.094 32.9699 40.967 32.9174 40.967C32.8724 40.967 32.5049 40.8401 32.1074 40.6877C31.7099 40.5354 30.9974 40.2645 30.5249 40.0868C25.7024 38.3346 23.7224 37.5305 22.7024 36.938L22.4174 36.7688L23.0624 36.1593C23.6324 35.6176 24.5924 34.4242 24.6674 34.1618C24.6824 34.111 24.8099 33.8909 24.9449 33.6793C25.0874 33.4592 25.1999 33.2646 25.1999 33.2392C25.1999 33.2053 25.3049 32.9937 25.4249 32.7482C25.6274 32.3673 25.7849 31.9611 25.9199 31.4786C25.9499 31.3855 25.7999 31.267 25.3349 31.0385C24.9899 30.8607 24.6899 30.7253 24.6599 30.7253C24.6224 30.7253 24.3524 30.5983 24.0524 30.4375C23.7524 30.2851 23.4074 30.1328 23.2799 30.0989C23.0699 30.0566 23.0549 30.0735 22.7624 30.7845C22.0274 32.5874 20.7074 34.0263 19.4099 34.4411L18.9224 34.6019L18.6149 34.3734C18.4499 34.2549 17.9174 33.8317 17.4374 33.4338C16.9499 33.036 16.4624 32.6382 16.3499 32.5451C15.5024 31.8595 13.3649 29.6757 12.1574 28.2537C11.0174 26.9164 10.8374 26.6709 10.9649 26.6286C11.0174 26.6116 11.5049 26.4424 12.0374 26.2561C13.2224 25.8414 14.1824 25.5198 14.5874 25.4013C14.7524 25.3589 15.3074 25.1981 15.8249 25.0458C16.3424 24.8934 16.9124 24.7495 17.0999 24.7157C17.2874 24.6818 17.9099 24.5379 18.4874 24.394C21.1499 23.7338 25.2524 23.0651 28.1624 22.8112C30.3899 22.625 30.2399 22.6673 30.5549 22.151C31.4774 20.6359 31.8524 20.0857 32.7224 18.9515C33.6599 17.7242 35.6624 15.5319 36.2699 15.0579C36.3599 14.9987 36.7049 14.7024 37.0424 14.4062C37.3799 14.1184 37.6799 13.8814 37.7099 13.8814C37.7474 13.8814 37.8374 13.8137 37.9199 13.729C38.0024 13.6444 38.1599 13.5005 38.2724 13.4159L38.4824 13.2635L38.3249 13.7206C38.2349 13.966 38.1524 14.1946 38.1299 14.2284C38.1149 14.2623 38.0699 14.457 38.0324 14.6601C37.9949 14.8633 37.8749 15.3626 37.7699 15.7859C37.2074 17.9866 37.2224 21.9986 37.7999 24.1993C37.9274 24.6649 38.0249 25.0881 38.0249 25.1389C38.0249 25.2743 38.5049 26.5863 38.8199 27.3057C38.9549 27.6274 39.0749 27.9236 39.0749 27.9575C39.0749 27.9913 39.1949 28.2199 39.3374 28.4738C39.4799 28.7277 39.5999 28.9562 39.5999 28.9816C39.5999 29.0832 40.7624 30.9623 40.9949 31.2331C41.1374 31.4024 41.2499 31.5717 41.2499 31.6225C41.2499 31.851 44.6099 35.5499 44.8199 35.5499C44.8424 35.5499 44.9924 35.6769 45.1499 35.8208C45.4124 36.0832 45.8849 36.4725 46.5224 36.9465C46.6799 37.065 46.8524 37.1581 46.9124 37.1581C46.9724 37.1581 47.0999 36.9634 47.2124 36.7264C47.3174 36.4894 47.4674 36.1932 47.5499 36.0832C47.6324 35.9647 47.6999 35.8292 47.6999 35.7954C47.6999 35.753 47.8199 35.516 47.9624 35.2621C48.1049 35.0082 48.2249 34.7712 48.2249 34.7458C48.2249 34.7119 48.3224 34.5342 48.4349 34.3395C48.6824 33.9248 48.8999 33.4508 48.8999 33.3153C48.8999 33.2646 48.7724 33.1376 48.6149 33.0276C48.2999 32.8075 47.8574 32.4689 47.7149 32.325C47.6549 32.2742 47.3549 32.0034 47.0474 31.7241C46.7324 31.4447 46.2074 30.92 45.8774 30.5645C45.2774 29.9212 43.9499 28.2537 43.9499 28.1437C43.9499 28.1098 43.8299 27.9321 43.6874 27.7374C43.5449 27.5512 43.4249 27.365 43.4249 27.3311C43.4249 27.2888 43.3274 27.0941 43.1999 26.891C42.2624 25.3251 41.4974 22.862 41.3399 20.8898C41.2274 19.5101 41.3324 18.4521 41.7824 16.4376C42.1424 14.8209 43.3049 12.1632 44.2724 10.7412C44.3849 10.5719 44.4749 10.3941 44.4749 10.3433C44.4749 10.2925 44.4974 10.2418 44.5349 10.2248C44.5649 10.2079 44.8424 9.81855 45.1499 9.35302C45.4574 8.88748 45.7424 8.46427 45.7874 8.41348C45.8249 8.3627 46.1699 7.85484 46.5374 7.27927C46.9124 6.71217 47.3249 6.09428 47.4599 5.92499C47.5874 5.74724 47.6999 5.58642 47.6999 5.55256C47.6999 5.51871 47.7749 5.40021 47.8724 5.28171C47.9699 5.17167 48.1049 4.96006 48.1799 4.82464C48.3074 4.57071 48.3074 4.57071 48.1349 4.57917C48.0374 4.57917 47.8124 4.63842 47.6249 4.69767Z" fill="black"/>
<path d="M69.5024 14.4908C69.2624 14.7532 68.7449 15.5573 68.4749 16.0991C68.1674 16.7423 67.5449 17.8596 67.5074 17.8512C67.4849 17.8512 67.2974 17.6226 67.0949 17.3433C66.8924 17.0724 66.6899 16.8439 66.6374 16.8439C66.5849 16.8439 66.4874 16.7677 66.4124 16.6746C65.8874 16.0229 63.5699 15.9636 62.3624 16.5815C62.0849 16.7254 61.8299 16.8439 61.7924 16.8439C61.6574 16.8439 60.3749 17.7411 59.7449 18.2744C58.9199 18.9769 57.7124 20.3058 57.2699 20.9914C56.7899 21.7363 56.2499 22.6927 56.0099 23.2344C55.4024 24.5633 55.2674 26.1038 55.6649 27.0857C55.8449 27.5089 56.4824 28.3553 56.6324 28.3553C56.6699 28.3553 56.8574 28.4823 57.0524 28.6346C57.5399 29.0155 59.7824 30.1328 60.0524 30.1328C60.1799 30.1328 61.6199 30.8777 62.0624 31.1824C62.6399 31.5717 63.2999 32.2743 63.4874 32.7144C63.5849 32.9429 63.6374 33.2223 63.6374 33.5608C63.6374 33.9925 63.5924 34.1618 63.3374 34.6781C62.4674 36.4641 60.3524 38.3008 57.9149 39.3758C56.6699 39.9175 55.4699 40.0106 54.9224 39.5874C54.2999 39.1134 54.1649 37.9961 54.5624 36.608C54.7799 35.8377 55.3124 34.6358 55.5824 34.3141C55.6574 34.221 55.7249 34.111 55.7249 34.0602C55.7249 33.9502 56.4599 33.0953 56.5499 33.0953C56.6699 33.0953 56.6399 32.6975 56.5049 32.5536C56.3549 32.3758 56.0699 32.2997 55.8374 32.3674C55.5374 32.452 54.8699 33.2984 53.9549 34.7374C53.3699 35.66 52.6424 37.302 52.3424 38.3939C52.1174 39.215 52.0874 39.4181 52.0874 40.2899C52.0874 41.1871 52.1024 41.2972 52.2899 41.695C52.5899 42.3383 53.0099 42.7446 53.6849 43.0323C54.2474 43.2863 54.2999 43.2947 55.5374 43.2863C56.7299 43.2863 56.8724 43.2693 57.7649 43.0154C61.6049 41.9066 65.5199 38.7917 66.6449 35.9731C66.8474 35.4568 66.8624 35.3553 66.8624 34.3649C66.8624 33.3915 66.8474 33.2561 66.6449 32.7144C66.2849 31.7241 65.5349 30.7846 64.4999 30.0228C64.0499 29.6927 62.8499 29.0324 61.9124 28.6092C59.2799 27.4073 58.4249 26.6963 58.5149 25.7822C58.5599 25.3336 58.9649 24.3009 59.2874 23.8015C60.2249 22.3457 60.7199 21.7363 61.9274 20.5089C62.4974 19.9418 63.5174 19.0531 63.9224 18.7738C64.4324 18.4267 64.9724 18.1305 65.2199 18.0458C65.9699 17.8004 66.1574 17.9781 66.2099 18.96C66.2474 19.7133 66.0374 20.8644 65.6099 22.2695C65.4899 22.6758 65.3624 23.1329 65.3249 23.2852C65.2874 23.446 65.1524 23.9116 65.0324 24.3179C64.7624 25.1812 64.6499 26.4678 64.7924 27.0603C64.9349 27.6612 65.4824 28.313 66.1274 28.6516C66.4349 28.8124 67.0424 28.8124 67.2374 28.6516C67.3799 28.5246 67.3799 28.5161 67.2449 28.2622C66.9674 27.7374 67.2149 26.3324 67.8974 24.5464C68.4149 23.1836 69.2549 21.33 69.5324 20.9152C69.6149 20.8052 69.6749 20.6782 69.6749 20.6274C69.6749 20.5851 69.7949 20.3566 69.9374 20.1365C70.0799 19.908 70.1999 19.6964 70.1999 19.6625C70.1999 19.6371 70.3049 19.4594 70.4249 19.2647C70.5524 19.07 70.8749 18.5876 71.1374 18.1897C71.3999 17.7919 71.7974 17.2587 72.0224 16.9963C72.2474 16.7423 72.4574 16.4461 72.4799 16.353C72.6374 15.8028 71.6099 14.694 70.6424 14.3639C70.0199 14.1523 69.8099 14.1777 69.5024 14.4908Z" fill="black"/>
<path d="M110.497 17.6903C110.182 17.8765 109.275 18.8499 109.275 19.0107C109.275 19.0615 109.2 19.1716 109.117 19.2647C109.027 19.3493 108.757 19.7641 108.517 20.1873C108.27 20.602 108.03 21.0168 107.977 21.1014C107.835 21.3384 107.347 22.2695 107.152 22.6842C107.055 22.8958 106.845 23.3275 106.687 23.6576C106.537 23.9793 106.335 24.4194 106.237 24.631C106.14 24.8426 105.99 25.1812 105.892 25.3928C105.547 26.1546 105.262 26.8232 104.707 28.186C104.092 29.7096 103.065 32.452 102.795 33.3069C102.742 33.4931 102.607 33.8909 102.502 34.1956C102.015 35.6007 101.55 37.2512 101.55 37.5559C101.55 37.776 101.895 38.1146 102.352 38.3516C102.78 38.5716 103.635 38.6563 103.807 38.4955C103.92 38.4024 104.197 37.4459 104.422 36.4302C104.482 36.1255 104.542 36.0493 104.887 35.8631C105.112 35.7276 105.585 35.5753 106.02 35.4907C107.047 35.296 107.932 35.4314 108.735 35.9054C109.035 36.0831 109.365 36.227 109.47 36.227C109.897 36.227 110.625 34.8982 110.625 34.1194C110.625 33.8147 110.602 33.7809 110.265 33.62C109.762 33.3746 109.335 33.2645 108.607 33.1968L107.977 33.1376L108.382 32.6636C108.607 32.4012 109.02 31.9018 109.297 31.5632C109.575 31.2162 109.92 30.8014 110.055 30.6406C110.437 30.192 111.712 28.4399 112.162 27.7543C112.695 26.9333 112.8 26.2561 112.447 25.8922C112.14 25.5875 111.772 25.3081 111.66 25.3081C111.607 25.3081 111.495 25.2489 111.42 25.1812C111.06 24.8765 110.655 25.105 109.552 26.2392C109.162 26.637 107.445 28.8293 106.507 30.1328C106.38 30.3021 106.395 30.2343 106.567 29.7942C106.897 28.9562 107.662 27.3226 108.037 26.6624C108.142 26.4762 108.225 26.2985 108.225 26.2646C108.225 26.2392 108.345 26.0107 108.487 25.7567C108.757 25.2912 109.02 24.8341 109.582 23.8269C109.762 23.4968 110.01 23.0736 110.137 22.8874C110.257 22.6927 110.512 22.2949 110.7 21.9986C111.262 21.1099 112.177 19.9503 112.567 19.6371C112.935 19.3408 113.077 19.0531 112.972 18.8414C112.83 18.5537 111.495 17.6818 111.037 17.5718C110.88 17.538 110.715 17.5718 110.497 17.6903Z" fill="black"/>
<path d="M75.3749 19.053C74.8424 19.307 73.7399 20.9406 72.7874 22.8958C72.4649 23.5645 72.0524 24.4279 71.9174 24.7156C71.6549 25.2743 70.7399 27.4665 70.4249 28.2706C70.2599 28.7108 70.0199 29.3202 69.8999 29.6249C69.7799 29.9296 69.5399 30.556 69.3749 31.0215C69.2024 31.487 68.9699 32.1303 68.8499 32.4604C68.7299 32.7821 68.5874 33.2053 68.5274 33.3915C68.4674 33.5777 68.3399 33.9755 68.2274 34.2803C67.6199 36.0324 66.9749 38.2415 66.9749 38.5632C66.9749 38.9187 67.0874 39.0541 67.6574 39.3927C68.5874 39.9344 69.2699 39.8667 69.5624 39.2234C69.7949 38.6901 70.3724 37.5475 70.4699 37.412C70.5224 37.3443 70.6274 37.1496 70.7099 36.9888C70.9949 36.4132 71.6924 35.2198 72.3899 34.1025C72.5249 33.8824 72.7049 33.5946 72.7874 33.4677C73.0049 33.1037 73.9049 31.8933 74.0924 31.7071C74.2499 31.5463 74.2499 31.5548 74.0699 32.1303C73.5974 33.6624 73.4174 34.3818 73.3124 35.0844C73.0649 36.8026 73.2224 37.2089 74.3624 37.8098C74.7599 38.013 74.9024 38.0384 75.6074 38.0468C76.3649 38.0468 76.4099 38.0384 76.7323 37.7929C77.3998 37.2851 78.6973 35.6938 79.4623 34.4665C79.8448 33.8486 80.2423 33.146 80.3398 32.926C80.3848 32.8075 80.4673 32.6551 80.5198 32.5874C80.5723 32.5197 80.7973 32.0372 81.0298 31.5294C81.5998 30.2682 81.5998 29.845 81.0598 29.5318C80.6023 29.2694 80.4148 29.3371 80.0848 29.8788C79.9348 30.1328 79.8073 30.3867 79.8073 30.4375C79.7923 30.6829 78.1273 33.4677 77.5423 34.2125C76.9948 34.9235 76.1699 35.77 75.8098 36.007C75.5998 36.1509 75.5998 36.1509 75.5998 35.9477C75.5998 35.3891 76.6348 32.3419 77.3998 30.6406C77.5198 30.3867 77.6848 29.9381 77.7748 29.6588C77.9248 29.1678 77.9248 29.1171 77.8123 28.7954C77.6023 28.2029 76.9498 27.7204 76.2298 27.6358C75.4874 27.5342 75.1799 27.7035 74.2499 28.7108C73.9049 29.0832 73.0724 30.1412 72.7649 30.5983C72.4649 31.0469 71.6999 32.198 71.5499 32.4181C71.4149 32.6128 71.7524 31.5971 72.1724 30.5221C72.4724 29.7519 73.5524 27.3819 73.7549 27.0518C73.8599 26.874 73.9499 26.6878 73.9499 26.6455C73.9499 26.6116 74.0624 26.3746 74.2049 26.1292C74.3399 25.8922 74.5949 25.4436 74.7599 25.1388C75.5473 23.6999 76.6573 22.0494 77.2648 21.3976L77.7973 20.8305L77.7448 20.4243C77.6848 19.9249 77.3773 19.527 76.7998 19.2393C76.3424 19.0023 75.6599 18.9092 75.3749 19.053Z" fill="black"/>
<path d="M97.8749 23.2175C97.6574 23.3444 97.3274 23.9708 96.5024 25.8583C95.4224 28.3214 94.7324 30.2005 94.2749 31.9526C94.1999 32.2319 94.0574 32.7821 93.9449 33.1799C93.5999 34.4495 93.2174 36.3201 93.1724 36.9126C93.1124 37.7167 93.1949 37.8522 94.0874 38.3262C94.4924 38.5462 94.9499 38.6224 95.1899 38.5208C95.3624 38.4447 95.4224 38.3092 95.6549 37.4374C96.0449 35.9816 96.0749 35.8884 96.2699 35.3975C96.3674 35.1521 96.4499 34.9151 96.4499 34.8643C96.4499 34.6527 97.2899 32.9344 98.0249 31.6563C98.2649 31.2416 99.1124 29.9973 99.3674 29.6841L99.5624 29.4471L99.5999 30.5983L99.6374 31.7579L99.8999 32.0034C100.342 32.4266 100.89 32.6043 101.76 32.6212C102.367 32.6297 102.547 32.6043 102.6 32.5027C102.727 32.2742 102.682 32.088 102.45 31.9526C102.03 31.7071 101.977 30.8438 102.225 28.423C102.337 27.3565 102.36 26.8825 102.307 26.7217C102.217 26.4677 101.805 26.1461 101.362 25.9937C101.197 25.9345 100.86 25.7906 100.605 25.6721C99.9299 25.3589 99.7874 25.4097 99.3974 26.0699C99.0149 26.7301 98.6624 27.3226 98.5124 27.5512C98.3474 27.8051 98.5424 27.2803 99.1574 25.8414C99.8849 24.1231 99.8549 23.81 98.9549 23.3529C98.4374 23.0905 98.1674 23.0482 97.8749 23.2175Z" fill="black"/>
<path d="M89.34 26.4677C89.25 26.5439 88.935 26.9417 88.6425 27.348C88.35 27.7628 88.1025 28.1013 88.0875 28.1013C88.0725 28.1013 87.7425 27.8813 87.36 27.6104C86.9775 27.3396 86.52 27.0687 86.355 27.0179C85.68 26.7979 85.0575 26.9502 84.465 27.4835C84.1125 27.7882 83.28 28.8123 82.9875 29.2779C82.62 29.8704 81.9825 30.9623 81.8775 31.1908C80.5875 33.9078 79.8975 36.6418 80.28 37.4882C80.3925 37.7252 80.895 38.2331 81.2175 38.4277C81.5025 38.597 82.365 38.851 82.65 38.851C83.04 38.851 83.3025 38.614 84.2925 37.3697C84.555 37.0481 85.8675 35.0759 86.2125 34.5088C86.325 34.3226 86.4225 34.1956 86.4375 34.2125C86.46 34.2295 86.4225 34.4326 86.355 34.6611C86.295 34.8981 86.2275 35.5076 86.1975 36.0154C86.145 37.1242 86.22 37.3951 86.7525 37.9114C87.2625 38.4277 87.555 38.5547 88.2 38.5547C88.725 38.5547 88.7925 38.5378 89.2125 38.2246C89.805 37.7929 90.24 37.3528 90.7725 36.6672C91.2975 35.9816 92.0475 34.8897 92.175 34.6104C92.2275 34.5003 92.295 34.3903 92.325 34.3649C92.3925 34.3056 93.225 32.8667 93.225 32.8075C93.225 32.7821 93.345 32.5705 93.4875 32.3419C93.63 32.1219 93.75 31.9018 93.75 31.8764C93.75 31.8426 93.8625 31.614 93.9975 31.377C94.5375 30.429 94.8 29.8873 94.8 29.735C94.7925 29.2694 93.9075 28.7531 93.555 29.0155C93.5025 29.0493 93.345 29.3202 93.1875 29.6249C91.59 32.8075 89.835 35.3975 89.1525 35.5922L88.95 35.6515V35.059C88.95 34.6358 89.01 34.2887 89.145 33.8401C89.25 33.5015 89.3775 33.0699 89.4375 32.8837C89.655 32.1049 91.26 28.5076 91.5 28.2368C91.545 28.186 91.575 28.0082 91.575 27.8305C91.575 26.9333 89.9775 25.9684 89.34 26.4677ZM86.655 29.3033C86.91 29.7096 86.79 30.3444 86.385 30.8438C86.31 30.9369 86.25 31.0384 86.25 31.0723C86.25 31.1062 86.205 31.1908 86.1525 31.2501C86.055 31.3601 84.9975 32.8921 84.69 33.3746C84.5925 33.5185 84.4575 33.7047 84.39 33.7809C84.3225 33.857 84.0975 34.1448 83.8875 34.4241C83.685 34.695 83.415 35.0082 83.295 35.1267L83.0775 35.3298L83.1225 35.059C83.205 34.5934 84.045 32.4943 84.3825 31.9103C84.45 31.7918 84.6675 31.4109 84.87 31.0638C85.3275 30.2513 86.2275 29.1171 86.4 29.1171C86.4825 29.1171 86.595 29.2017 86.655 29.3033Z" fill="black"/>
<path d="M83.3999 45.0723V47.3153H83.7374H84.0749V45.0723V42.8292H83.7374H83.3999V45.0723Z" fill="black"/>
<path d="M84.5249 43.1255V43.4217H85.1249H85.7249V45.3685V47.3153H86.0249H86.3249V45.3685V43.4217H86.9249H87.5249V43.1255V42.8292H86.0249H84.5249V43.1255Z" fill="black"/>
<path d="M89.9398 43.9042C89.5573 44.0565 89.1523 44.5898 89.0248 45.0976C88.8373 45.8848 89.2048 46.8243 89.8423 47.2052C90.2923 47.4761 90.8998 47.4676 91.3723 47.1968C91.7023 47.0105 91.7248 47.0105 91.7248 47.1544C91.7248 47.2814 91.7848 47.3153 91.9873 47.3153H92.2498V45.5801V43.8449H92.0173C91.8598 43.8449 91.7773 43.8957 91.7473 43.9973C91.7173 44.1412 91.6948 44.1412 91.3648 43.9634C90.9523 43.7349 90.4198 43.7095 89.9398 43.9042ZM91.1098 44.5559C91.5373 44.8098 91.7098 45.25 91.6123 45.8848C91.5148 46.545 90.7273 46.9344 90.1498 46.5958C89.6623 46.308 89.4823 45.5208 89.7898 44.9707C90.0523 44.4882 90.6673 44.2935 91.1098 44.5559Z" fill="black"/>
<path d="M93.675 43.9464C93.48 44.0649 93.2475 44.2935 93.1125 44.5051C92.91 44.8352 92.8875 44.9452 92.8875 45.4954C92.8875 46.0456 92.91 46.1556 93.1125 46.4857C93.4875 47.0952 94.17 47.3491 94.8525 47.1459C95.055 47.0867 95.2575 46.9936 95.3175 46.9428C95.4 46.8666 95.4075 46.9005 95.3625 47.1459C95.205 48.0008 94.32 48.2548 93.78 47.603C93.5925 47.3829 93.4725 47.3152 93.27 47.3152C92.955 47.3152 92.9475 47.3745 93.15 47.8231C93.375 48.314 93.84 48.5933 94.44 48.6018C95.0025 48.6018 95.19 48.5256 95.5725 48.1532C95.955 47.7808 95.9925 47.5184 96 45.47V43.8449H95.7825C95.6325 43.8449 95.5575 43.8957 95.5275 44.0057C95.49 44.1665 95.4825 44.1665 95.13 43.9634C94.665 43.701 94.125 43.6925 93.675 43.9464ZM94.905 44.5643C95.5575 44.8691 95.5575 46.0625 94.905 46.4096C94.365 46.7058 93.855 46.5027 93.6 45.9102L93.4275 45.5208L93.57 45.123C93.795 44.5051 94.3125 44.285 94.905 44.5643Z" fill="black"/>
<path d="M97.5523 43.8788C96.9073 44.1496 96.5698 44.8098 96.6148 45.6901C96.6448 46.3926 96.9148 46.892 97.4248 47.2052C97.7098 47.3745 97.8448 47.4084 98.2648 47.383C98.6773 47.3576 98.8273 47.3068 99.0898 47.1036C99.4273 46.8328 99.7198 46.3588 99.6373 46.2149C99.5698 46.0879 99.0898 46.1133 99.0223 46.2488C98.9173 46.4604 98.4448 46.7228 98.1748 46.7228C97.8448 46.7228 97.4698 46.4688 97.3123 46.1387L97.1998 45.8763L98.4523 45.8594L99.7123 45.834L99.6898 45.3262C99.6598 44.412 99.1198 43.8364 98.2498 43.7857C98.0173 43.7687 97.7098 43.8111 97.5523 43.8788ZM98.6023 44.539C98.7148 44.5898 98.8723 44.7167 98.9398 44.8098C99.2023 45.1653 99.1348 45.1992 98.1748 45.1992C97.6798 45.1992 97.2748 45.1738 97.2748 45.1484C97.2748 45.123 97.3273 44.996 97.3948 44.8691C97.5973 44.4797 98.1673 44.3274 98.6023 44.539Z" fill="black"/>
<path d="M101.152 43.9635C100.822 44.1497 100.8 44.1497 100.8 44.0058C100.8 43.8788 100.74 43.845 100.537 43.845H100.275V45.5801V47.3153H100.612H100.95V46.1642V45.013L101.205 44.7252C101.4 44.5052 101.527 44.4375 101.722 44.4375C102.36 44.4375 102.45 44.6575 102.45 46.1726V47.3153H102.795H103.14L103.11 46.0203C103.087 44.903 103.057 44.6914 102.922 44.3867C102.63 43.7688 101.827 43.5741 101.152 43.9635Z" fill="black"/>
<path d="M104.587 43.8957C103.987 44.1412 103.65 44.7591 103.65 45.5886C103.65 46.6212 104.227 47.3238 105.127 47.383C105.532 47.4169 105.66 47.383 106.012 47.1883C106.447 46.9344 106.627 46.7059 106.702 46.2996C106.74 46.0541 106.74 46.0456 106.44 46.0456C106.207 46.0456 106.125 46.088 106.095 46.198C106.035 46.4096 105.517 46.7228 105.225 46.7228C104.887 46.7228 104.557 46.4858 104.392 46.1134C104.212 45.7071 104.212 45.4447 104.407 45.0215C104.565 44.666 104.895 44.4374 105.247 44.4374C105.547 44.4374 105.975 44.6829 106.065 44.903C106.132 45.0807 106.2 45.1146 106.447 45.1146C106.74 45.1146 106.74 45.1061 106.702 44.8606C106.545 43.9973 105.502 43.5148 104.587 43.8957Z" fill="black"/>
<path d="M106.875 43.8788C106.875 43.9634 107.16 44.6829 107.632 45.7747C107.985 46.5873 108.142 47.0528 108.105 47.1629C108.082 47.2475 107.962 47.4591 107.835 47.62C107.662 47.84 107.55 47.9077 107.355 47.9077C107.107 47.9077 107.1 47.9162 107.1 48.2548V48.6018L107.452 48.5426C108.195 48.4156 108.307 48.2802 108.975 46.6381C109.222 46.0117 109.515 45.3007 109.612 45.0722C109.837 44.5305 110.025 44.0142 110.025 43.9211C110.025 43.8788 109.89 43.8449 109.725 43.8449C109.462 43.8449 109.41 43.8788 109.335 44.0734C109.29 44.2089 109.14 44.5813 109.005 44.9199C108.862 45.25 108.75 45.5631 108.75 45.6139C108.75 45.6647 108.69 45.8171 108.615 45.9525L108.48 46.2064L108.36 45.9356C108.292 45.7832 108.075 45.2584 107.88 44.759L107.512 43.8449H107.197C107.017 43.8449 106.875 43.8618 106.875 43.8788Z" fill="black"/>
</svg>
