<svg width="136" height="80" viewBox="0 0 136 80" fill="none" xmlns="http://www.w3.org/2000/svg">
<path d="M53.975 4.68837C53.7625 4.75595 53.1165 4.93335 52.53 5.09386C51.9435 5.25437 51.1615 5.47401 50.7875 5.57538C50.4135 5.6852 49.7845 5.85416 49.385 5.95553C47.1835 6.52153 45.135 7.27338 43.401 8.16884C41.973 8.90379 41.7095 9.05585 41.3525 9.29239C41.1655 9.41066 40.6725 9.74012 40.2475 10.0104C39.831 10.2808 39.4655 10.5258 39.44 10.5511C39.4145 10.5764 39.0915 10.8299 38.7175 11.1086C37.502 12.0126 36.108 13.2544 35.1135 14.3188C34.85 14.5891 34.493 14.9524 34.323 15.1129C34.1445 15.2734 34 15.4508 34 15.5099C34 15.5606 33.949 15.6282 33.8895 15.6535C33.7875 15.6873 32.402 17.3684 31.9345 18.0104C31.7985 18.2047 31.6965 18.2301 29.9795 18.4075C28.9935 18.5089 27.965 18.6102 27.71 18.6356C27.455 18.6609 26.6475 18.7707 25.925 18.889C25.2025 19.0073 24.208 19.1509 23.715 19.2185C23.222 19.2861 22.3635 19.4381 21.8025 19.5564C21.2415 19.6746 20.6295 19.7929 20.4425 19.8183C19.9835 19.8774 17.731 20.3843 16.3455 20.7475C15.7335 20.908 15.181 21.0347 15.1215 21.0347C15.0025 21.0347 13.8805 21.3642 12.1125 21.9302C11.6025 22.0907 11.1435 22.2174 11.101 22.2174C11.067 22.2174 10.7015 22.3441 10.2935 22.4962C9.89402 22.6567 9.39252 22.8425 9.18002 22.9186C8.63602 23.1129 7.76052 23.4592 7.26752 23.6873C7.03802 23.7971 6.48552 24.0506 6.06052 24.2449C5.62702 24.4476 5.27002 24.6335 5.27002 24.6673C5.27002 24.7771 5.47402 25.115 5.95002 25.7993C6.20502 26.1625 6.49402 26.5764 6.58752 26.7285C6.99552 27.3621 8.11752 28.7897 8.35552 28.9587C8.43202 29.0178 8.50002 29.1108 8.50002 29.1614C8.50002 29.2121 8.61052 29.3726 8.74652 29.5163C8.88252 29.6599 9.27352 30.0823 9.61352 30.454C10.7865 31.7296 12.869 33.7401 13.872 34.568C14.025 34.6947 14.382 34.9988 14.6625 35.2354C15.3935 35.8605 17.391 37.3389 17.493 37.3389C17.544 37.3389 17.595 37.3726 17.612 37.4149C17.6375 37.4994 19.159 38.5215 19.244 38.5215C19.278 38.5215 19.431 38.6145 19.5755 38.7243C19.7285 38.8341 20.009 39.0199 20.2045 39.1298C20.4 39.2396 20.859 39.493 21.2245 39.6958C22.406 40.3462 24.9305 41.5627 25.109 41.5627C25.143 41.5627 25.381 41.6556 25.636 41.7739C26.078 41.9767 27.812 42.5933 28.3475 42.7454C28.492 42.7792 28.968 42.9397 29.41 43.0918C30.379 43.4297 31.4755 43.7845 32.8525 44.2153C33.4135 44.3927 34.204 44.6546 34.6035 44.7897C35.0115 44.9249 35.4705 45.0685 35.6235 45.1108C35.9125 45.1783 37.57 45.7443 39.355 46.3779C39.8905 46.5722 40.545 46.8003 40.8 46.8848C41.055 46.9693 41.5225 47.1551 41.837 47.2987C42.1515 47.4423 42.449 47.5606 42.5 47.5606C42.5425 47.5606 42.8655 47.6958 43.214 47.8563C43.5625 48.0168 43.877 48.1519 43.9025 48.1519C44.013 48.1519 46.5375 49.436 47.1155 49.7908C47.906 50.2639 48.3735 50.568 48.535 50.7116C48.603 50.7707 48.892 50.9988 49.1725 51.21C49.7675 51.6578 50.932 52.8573 51.289 53.3811C52.377 54.9862 52.734 56.9714 52.292 58.9735C52.1135 59.8183 51.595 61.1446 51.238 61.719C51.1275 61.8964 51.0085 62.1076 50.983 62.1752C50.9405 62.2934 50.4815 62.9608 49.81 63.8816C49.657 64.1097 49.4955 64.2871 49.47 64.2871C49.4445 64.2871 49.351 63.8394 49.2745 63.2903C49.0195 61.4318 48.076 59.0918 46.9625 57.512C46.4695 56.8024 45.73 55.9576 45.033 55.2903C44.336 54.6229 43.1715 53.6937 42.755 53.474C42.636 53.4149 42.5255 53.3389 42.5 53.3051C42.4745 53.2713 42.194 53.0939 41.8625 52.908C41.5395 52.7306 41.174 52.511 41.055 52.4349C40.936 52.3589 40.8 52.3251 40.7575 52.3589C40.7065 52.3927 40.409 52.9334 40.086 53.5585C39.763 54.1836 39.338 55.0115 39.134 55.4001C38.93 55.7887 38.76 56.1773 38.76 56.2702C38.76 56.38 38.8705 56.4899 39.1255 56.5997C39.576 56.8109 40.256 57.2417 40.6215 57.5458C40.7745 57.681 40.9275 57.7824 40.953 57.7824C41.0125 57.7824 42.398 59.1171 42.721 59.4804C43.35 60.2069 44.064 61.5078 44.421 62.5976C44.8885 63.9999 44.9055 64.1519 44.914 65.9767C44.914 67.9534 44.88 68.1477 44.268 69.9302C44.0385 70.6145 43.775 71.4001 43.69 71.6789C43.537 72.1857 43.3075 72.87 42.7805 74.323C42.466 75.1931 42.4235 75.4804 42.6275 75.4043C42.6955 75.379 43.3585 74.9481 44.098 74.4582C44.829 73.9598 45.968 73.191 46.6225 72.7517C47.277 72.3125 47.8975 71.8901 48.008 71.814C49.368 70.8763 51.357 69.0601 52.598 67.6155C53.7795 66.247 53.7625 66.2639 54.9525 64.4138C55.5815 63.4508 56.3635 61.5331 56.712 60.1224C56.9755 59.0495 56.9925 58.9397 56.9925 57.2755C56.9925 55.5944 56.984 55.5099 56.7205 54.4877C56.27 52.7391 55.3435 50.965 54.315 49.833C53.3715 48.8024 51.9435 47.4761 51.782 47.4761C51.731 47.4761 51.6545 47.4254 51.6205 47.3663C51.5525 47.2565 50.1755 46.2934 50.082 46.2934C50.0565 46.2934 49.9715 46.2343 49.9035 46.1667C49.6995 45.9893 48.6455 45.4149 47.226 44.7053C46.053 44.1224 45.5685 43.9112 44.37 43.4212C44.115 43.3198 43.639 43.1255 43.3075 42.9904C42.9845 42.8552 42.5595 42.6947 42.3725 42.6271C42.1855 42.568 41.5395 42.3315 40.9275 42.1118C40.324 41.8922 39.6355 41.6556 39.3975 41.5881C39.168 41.512 38.624 41.3262 38.1905 41.1657C37.757 41.0136 37.366 40.8869 37.3065 40.8869C37.2555 40.8869 36.839 40.7602 36.3885 40.6081C35.938 40.4561 35.1305 40.1857 34.595 40.0083C29.1295 38.2597 26.8855 37.4571 25.7295 36.8658L25.4065 36.6968L26.1375 36.0886C26.7835 35.5479 27.8715 34.3568 27.9565 34.0949C27.9735 34.0442 28.118 33.8246 28.271 33.6134C28.4325 33.3938 28.56 33.1995 28.56 33.1741C28.56 33.1403 28.679 32.9291 28.815 32.6842C29.0445 32.304 29.223 31.8985 29.376 31.417C29.41 31.3241 29.24 31.2058 28.713 30.9777C28.322 30.8003 27.982 30.6651 27.948 30.6651C27.9055 30.6651 27.5995 30.5384 27.2595 30.3779C26.9195 30.2259 26.5285 30.0738 26.384 30.04C26.146 29.9978 26.129 30.0147 25.7975 30.7243C24.9645 32.5236 23.4685 33.9598 21.998 34.3737L21.4455 34.5342L21.097 34.3061C20.91 34.1878 20.3065 33.7655 19.7625 33.3684C19.21 32.9714 18.6575 32.5743 18.53 32.4814C17.5695 31.7971 15.147 29.6176 13.7785 28.1984C12.4865 26.8637 12.2825 26.6187 12.427 26.5764C12.4865 26.5595 13.039 26.3906 13.6425 26.2047C14.9855 25.7908 16.0735 25.4698 16.5325 25.3515C16.7195 25.3093 17.3485 25.1488 17.935 24.9967C18.5215 24.8447 19.1675 24.701 19.38 24.6673C19.5925 24.6335 20.298 24.4899 20.9525 24.3462C23.97 23.6873 28.6195 23.0199 31.9175 22.7665C34.442 22.5807 34.272 22.6229 34.629 22.1076C35.6745 20.5954 36.0995 20.0463 37.0855 18.9144C38.148 17.6894 40.4175 15.5015 41.106 15.0284C41.208 14.9693 41.599 14.6736 41.9815 14.3779C42.364 14.0907 42.704 13.8542 42.738 13.8542C42.7805 13.8542 42.8825 13.7866 42.976 13.7021C43.0695 13.6176 43.248 13.474 43.3755 13.3895L43.6135 13.2375L43.435 13.6937C43.333 13.9386 43.2395 14.1667 43.214 14.2005C43.197 14.2343 43.146 14.4286 43.1035 14.6314C43.061 14.8341 42.925 15.3325 42.806 15.7549C42.1685 17.9513 42.1855 21.9555 42.84 24.1519C42.9845 24.6166 43.095 25.039 43.095 25.0896C43.095 25.2248 43.639 26.5342 43.996 27.2523C44.149 27.5733 44.285 27.8689 44.285 27.9027C44.285 27.9365 44.421 28.1646 44.5825 28.418C44.744 28.6715 44.88 28.8996 44.88 28.9249C44.88 29.0263 46.1975 30.9017 46.461 31.172C46.6225 31.341 46.75 31.5099 46.75 31.5606C46.75 31.7887 50.558 35.4803 50.796 35.4803C50.8215 35.4803 50.9915 35.6071 51.17 35.7507C51.4675 36.0126 52.003 36.4012 52.7255 36.8742C52.904 36.9925 53.0995 37.0854 53.1675 37.0854C53.2355 37.0854 53.38 36.8911 53.5075 36.6546C53.6265 36.418 53.7965 36.1224 53.89 36.0126C53.9835 35.8943 54.06 35.7591 54.06 35.7253C54.06 35.6831 54.196 35.4466 54.3575 35.1931C54.519 34.9397 54.655 34.7032 54.655 34.6778C54.655 34.644 54.7655 34.4666 54.893 34.2723C55.1735 33.8584 55.42 33.3853 55.42 33.2501C55.42 33.1995 55.2755 33.0727 55.097 32.9629C54.74 32.7433 54.2385 32.4054 54.077 32.2618C54.009 32.2111 53.669 31.9408 53.3205 31.662C52.9635 31.3832 52.3685 30.8594 51.9945 30.5046C51.3145 29.8626 49.81 28.1984 49.81 28.0886C49.81 28.0548 49.674 27.8774 49.5125 27.6831C49.351 27.4972 49.215 27.3114 49.215 27.2776C49.215 27.2354 49.1045 27.0411 48.96 26.8383C47.8975 25.2755 47.0305 22.8172 46.852 20.8489C46.7245 19.4719 46.8435 18.4159 47.3535 16.4054C47.7615 14.7919 49.079 12.1393 50.1755 10.7201C50.303 10.5511 50.405 10.3737 50.405 10.323C50.405 10.2723 50.4305 10.2216 50.473 10.2047C50.507 10.1878 50.8215 9.79925 51.17 9.33463C51.5185 8.87 51.8415 8.44761 51.8925 8.39693C51.935 8.34624 52.326 7.83938 52.7425 7.26493C53.1675 6.69893 53.635 6.08225 53.788 5.91329C53.9325 5.73589 54.06 5.57538 54.06 5.54159C54.06 5.5078 54.145 5.38953 54.2555 5.27126C54.366 5.16144 54.519 4.95025 54.604 4.81509C54.7485 4.56165 54.7485 4.56165 54.553 4.5701C54.4425 4.5701 54.1875 4.62924 53.975 4.68837Z" fill="#FEFEFE"/>
<path d="M78.7695 14.4625C78.4975 14.7244 77.911 15.5269 77.605 16.0676C77.2565 16.7096 76.551 17.8247 76.5085 17.8162C76.483 17.8162 76.2705 17.5882 76.041 17.3094C75.8115 17.0391 75.582 16.811 75.5225 16.811C75.463 16.811 75.3525 16.7349 75.2675 16.642C74.6725 15.9915 72.046 15.9324 70.6775 16.5491C70.363 16.6927 70.074 16.811 70.0315 16.811C69.8785 16.811 68.425 17.7064 67.711 18.2386C66.776 18.9398 65.4075 20.2661 64.906 20.9504C64.362 21.6938 63.75 22.6483 63.478 23.189C62.7895 24.5153 62.6365 26.0528 63.087 27.0327C63.291 27.4551 64.0135 28.2999 64.1835 28.2999C64.226 28.2999 64.4385 28.4266 64.6595 28.5787C65.212 28.9588 67.7535 30.0739 68.0595 30.0739C68.204 30.0739 69.836 30.8173 70.3375 31.1214C70.992 31.51 71.74 32.2112 71.9525 32.6505C72.063 32.8785 72.1225 33.1573 72.1225 33.4952C72.1225 33.9261 72.0715 34.095 71.7825 34.6103C70.7965 36.3928 68.3995 38.226 65.637 39.2988C64.226 39.8395 62.866 39.9324 62.2455 39.51C61.54 39.0369 61.387 37.9218 61.8375 36.5364C62.084 35.7677 62.6875 34.5681 62.9935 34.2471C63.0785 34.1542 63.155 34.0443 63.155 33.9936C63.155 33.8838 63.988 33.0306 64.09 33.0306C64.226 33.0306 64.192 32.6336 64.039 32.49C63.869 32.3126 63.546 32.2365 63.2825 32.3041C62.9425 32.3886 62.186 33.2334 61.149 34.6695C60.486 35.5903 59.6615 37.2291 59.3215 38.3189C59.0665 39.1383 59.0325 39.3411 59.0325 40.2112C59.0325 41.1066 59.0495 41.2165 59.262 41.6135C59.602 42.2555 60.078 42.661 60.843 42.9482C61.4805 43.2017 61.54 43.2101 62.9425 43.2017C64.294 43.2017 64.4555 43.1848 65.467 42.9313C69.819 41.8247 74.256 38.7159 75.531 35.9028C75.7605 35.3875 75.7775 35.2862 75.7775 34.2978C75.7775 33.3263 75.7605 33.1911 75.531 32.6505C75.123 31.6621 74.273 30.7244 73.1 29.9641C72.59 29.6346 71.23 28.9757 70.1675 28.5533C67.184 27.3537 66.215 26.6441 66.317 25.7318C66.368 25.284 66.827 24.2534 67.1925 23.755C68.255 22.302 68.816 21.6938 70.1845 20.4688C70.8305 19.9028 71.9865 19.0158 72.4455 18.7371C73.0235 18.3907 73.6355 18.095 73.916 18.0105C74.766 17.7656 74.9785 17.943 75.038 18.9229C75.0805 19.6747 74.8425 20.8236 74.358 22.226C74.222 22.6315 74.0775 23.0876 74.035 23.2397C73.9925 23.4002 73.8395 23.8648 73.7035 24.2703C73.3975 25.132 73.27 26.416 73.4315 27.0074C73.593 27.6072 74.2135 28.2576 74.9445 28.5956C75.293 28.7561 75.9815 28.7561 76.2025 28.5956C76.364 28.4688 76.364 28.4604 76.211 28.207C75.8965 27.6832 76.177 26.2809 76.9505 24.4984C77.537 23.1383 78.489 21.2883 78.8035 20.8743C78.897 20.7645 78.965 20.6378 78.965 20.5871C78.965 20.5449 79.101 20.3168 79.2625 20.0971C79.424 19.869 79.56 19.6579 79.56 19.6241C79.56 19.5987 79.679 19.4213 79.815 19.227C79.9595 19.0327 80.325 18.5512 80.6225 18.1542C80.92 17.7571 81.3705 17.2249 81.6255 16.963C81.8805 16.7096 82.1185 16.4139 82.144 16.321C82.3225 15.7719 81.158 14.6652 80.0615 14.3358C79.356 14.1246 79.118 14.1499 78.7695 14.4625Z" fill="#FEFEFE"/>
<path d="M125.231 17.6557C124.874 17.8415 123.845 18.813 123.845 18.9735C123.845 19.0242 123.76 19.134 123.667 19.2269C123.565 19.3114 123.259 19.7254 122.987 20.1477C122.706 20.5617 122.434 20.9756 122.375 21.0601C122.213 21.2966 121.661 22.2259 121.44 22.6398C121.329 22.851 121.091 23.2819 120.913 23.6113C120.743 23.9323 120.513 24.3716 120.403 24.5828C120.292 24.794 120.122 25.1319 120.012 25.3431C119.621 26.1034 119.298 26.7708 118.669 28.1309C117.972 29.6514 116.807 32.3885 116.501 33.2417C116.442 33.4276 116.289 33.8246 116.17 34.1287C115.617 35.5311 115.09 37.1784 115.09 37.4825C115.09 37.7021 115.481 38.04 116 38.2766C116.484 38.4962 117.453 38.5807 117.649 38.4202C117.776 38.3273 118.091 37.3727 118.346 36.3589C118.414 36.0548 118.482 35.9788 118.873 35.7929C119.128 35.6578 119.663 35.5057 120.156 35.4212C121.321 35.2269 122.324 35.3621 123.233 35.8352C123.573 36.0126 123.947 36.1562 124.066 36.1562C124.551 36.1562 125.375 34.8299 125.375 34.0527C125.375 33.7486 125.35 33.7148 124.967 33.5543C124.398 33.3093 123.913 33.1995 123.089 33.1319L122.375 33.0728L122.834 32.5997C123.089 32.3378 123.556 31.8394 123.871 31.5015C124.185 31.1551 124.576 30.7412 124.729 30.5807C125.163 30.133 126.608 28.3843 127.118 27.7C127.721 26.8806 127.84 26.2048 127.441 25.8415C127.092 25.5374 126.676 25.2586 126.548 25.2586C126.489 25.2586 126.361 25.1995 126.276 25.1319C125.868 24.8278 125.409 25.0559 124.16 26.1879C123.718 26.5849 121.771 28.7729 120.709 30.0738C120.564 30.2428 120.581 30.1752 120.777 29.7359C121.151 28.8996 122.018 27.2692 122.443 26.6103C122.562 26.4244 122.655 26.247 122.655 26.2132C122.655 26.1879 122.791 25.9598 122.953 25.7064C123.259 25.2417 123.556 24.7856 124.194 23.7803C124.398 23.4508 124.678 23.0284 124.823 22.8426C124.959 22.6483 125.248 22.2512 125.46 21.9556C126.098 21.0686 127.135 19.9112 127.577 19.5986C127.993 19.303 128.155 19.0158 128.036 18.8046C127.874 18.5173 126.361 17.6472 125.843 17.5374C125.664 17.5036 125.477 17.5374 125.231 17.6557Z" fill="#FEFEFE"/>
<path d="M85.425 19.0158C84.8215 19.2693 83.572 20.8997 82.4925 22.8511C82.127 23.5185 81.6595 24.3802 81.5065 24.6674C81.209 25.2249 80.172 27.4129 79.815 28.2154C79.628 28.6547 79.356 29.2629 79.22 29.5671C79.084 29.8712 78.812 30.4963 78.625 30.9609C78.4295 31.4256 78.166 32.0676 78.03 32.3971C77.894 32.7181 77.7325 33.1405 77.6645 33.3263C77.5965 33.5122 77.452 33.9092 77.3245 34.2133C76.636 35.962 75.905 38.1668 75.905 38.4879C75.905 38.8427 76.0325 38.9778 76.6785 39.3157C77.7325 39.8564 78.506 39.7888 78.8375 39.1468C79.101 38.6146 79.7555 37.4741 79.866 37.339C79.9255 37.2714 80.0445 37.0771 80.138 36.9166C80.461 36.3421 81.2515 35.151 82.042 34.0359C82.195 33.8163 82.399 33.529 82.4925 33.4023C82.739 33.0391 83.759 31.8311 83.9715 31.6452C84.15 31.4847 84.15 31.4931 83.946 32.0676C83.4105 33.5966 83.2065 34.3147 83.0875 35.0158C82.807 36.7307 82.9855 37.1362 84.2775 37.736C84.728 37.9388 84.8895 37.9641 85.6885 37.9726C86.547 37.9726 86.598 37.9641 86.9635 37.7191C87.72 37.2123 89.1905 35.6241 90.0575 34.3992C90.491 33.7825 90.9415 33.0813 91.052 32.8617C91.103 32.7434 91.1965 32.5913 91.256 32.5238C91.3155 32.4562 91.5705 31.9747 91.834 31.4678C92.48 30.2091 92.48 29.7867 91.868 29.4741C91.3495 29.2123 91.137 29.2798 90.763 29.8205C90.593 30.0739 90.4485 30.3274 90.4485 30.378C90.4315 30.623 88.5445 33.4023 87.8815 34.1457C87.261 34.8553 86.326 35.7001 85.918 35.9366C85.68 36.0803 85.68 36.0803 85.68 35.8775C85.68 35.32 86.853 32.2788 87.72 30.5808C87.856 30.3274 88.043 29.8796 88.145 29.6009C88.315 29.1109 88.315 29.0602 88.1875 28.7392C87.9495 28.1478 87.21 27.6663 86.394 27.5818C85.5525 27.4805 85.204 27.6494 84.15 28.6547C83.759 29.0264 82.8155 30.0824 82.467 30.5386C82.127 30.9863 81.26 32.1352 81.09 32.3548C80.937 32.5491 81.3195 31.5354 81.7955 30.4625C82.1355 29.6938 83.3595 27.3284 83.589 26.999C83.708 26.8215 83.81 26.6357 83.81 26.5935C83.81 26.5597 83.9375 26.3231 84.099 26.0781C84.252 25.8416 84.541 25.3939 84.728 25.0898C85.6205 23.6537 86.8785 22.0063 87.567 21.3559L88.1705 20.7899L88.111 20.3844C88.043 19.886 87.6945 19.4889 87.04 19.2017C86.5215 18.9652 85.748 18.8722 85.425 19.0158Z" fill="#FEFEFE"/>
<path d="M110.925 23.172C110.679 23.2987 110.305 23.9238 109.37 25.8077C108.146 28.266 107.364 30.1414 106.845 31.89C106.76 32.1688 106.599 32.7179 106.471 33.115C106.08 34.3821 105.647 36.2491 105.596 36.8404C105.528 37.6429 105.621 37.7781 106.633 38.2512C107.092 38.4708 107.61 38.5469 107.882 38.4455C108.078 38.3694 108.146 38.2343 108.409 37.3642C108.851 35.9112 108.885 35.8182 109.106 35.3283C109.217 35.0833 109.31 34.8467 109.31 34.7961C109.31 34.5849 110.262 32.87 111.095 31.5944C111.367 31.1804 112.328 29.9386 112.617 29.6261L112.838 29.3895L112.88 30.5384L112.923 31.6957L113.22 31.9407C113.722 32.3631 114.342 32.5405 115.328 32.5574C116.017 32.5659 116.221 32.5405 116.28 32.4391C116.425 32.2111 116.374 32.0252 116.11 31.89C115.634 31.6451 115.575 30.7834 115.855 28.3673C115.983 27.3029 116.008 26.8299 115.949 26.6694C115.847 26.4159 115.379 26.0949 114.878 25.9428C114.691 25.8837 114.308 25.7401 114.019 25.6218C113.254 25.3093 113.093 25.36 112.651 26.0189C112.217 26.6778 111.818 27.2691 111.648 27.4972C111.461 27.7507 111.682 27.2269 112.379 25.7908C113.203 24.0759 113.169 23.7633 112.149 23.3072C111.563 23.0453 111.257 23.003 110.925 23.172Z" fill="#FEFEFE"/>
<path d="M101.252 26.4159C101.15 26.4919 100.793 26.889 100.461 27.2944C100.13 27.7084 99.8494 28.0463 99.8324 28.0463C99.8154 28.0463 99.4414 27.8267 99.0079 27.5563C98.5744 27.286 98.0559 27.0157 97.8689 26.965C97.1039 26.7453 96.3984 26.8974 95.7269 27.4296C95.3274 27.7337 94.3839 28.7559 94.0524 29.2205C93.6359 29.8119 92.9134 30.9016 92.7944 31.1297C91.3324 33.8414 90.5504 36.57 90.9839 37.4148C91.1114 37.6514 91.6809 38.1582 92.0464 38.3525C92.3694 38.5215 93.3469 38.7749 93.6699 38.7749C94.1119 38.7749 94.4094 38.5384 95.5314 37.2966C95.8289 36.9755 97.3164 35.0072 97.7074 34.4412C97.8349 34.2554 97.9454 34.1287 97.9624 34.1456C97.9879 34.1624 97.9454 34.3652 97.8689 34.5933C97.8009 34.8298 97.7244 35.4381 97.6904 35.9449C97.6309 37.0516 97.7159 37.3219 98.3194 37.8372C98.8974 38.3525 99.2289 38.4792 99.9599 38.4792C100.555 38.4792 100.631 38.4623 101.107 38.1498C101.779 37.7189 102.272 37.2797 102.875 36.5954C103.47 35.9111 104.32 34.8214 104.465 34.5426C104.524 34.4328 104.601 34.323 104.635 34.2976C104.711 34.2385 105.655 32.8024 105.655 32.7432C105.655 32.7179 105.791 32.5067 105.952 32.2786C106.114 32.059 106.25 31.8393 106.25 31.814C106.25 31.7802 106.377 31.5521 106.53 31.3156C107.142 30.3694 107.44 29.8288 107.44 29.6767C107.431 29.2121 106.428 28.6968 106.029 28.9586C105.969 28.9924 105.791 29.2628 105.612 29.5669C103.802 32.7432 101.813 35.3282 101.039 35.5225L100.81 35.5817V34.9903C100.81 34.5679 100.878 34.2216 101.031 33.7739C101.15 33.4359 101.294 33.0051 101.362 32.8193C101.609 32.0421 103.428 28.4518 103.7 28.1815C103.751 28.1308 103.785 27.9534 103.785 27.776C103.785 26.8805 101.974 25.9175 101.252 26.4159ZM98.2089 29.2459C98.4979 29.6514 98.3619 30.2849 97.9029 30.7834C97.8179 30.8763 97.7499 30.9777 97.7499 31.0114C97.7499 31.0452 97.6989 31.1297 97.6394 31.1888C97.5289 31.2987 96.3304 32.8277 95.9819 33.3092C95.8714 33.4528 95.7184 33.6387 95.6419 33.7147C95.5654 33.7907 95.3104 34.078 95.0724 34.3567C94.8429 34.6271 94.5369 34.9396 94.4009 35.0579L94.1544 35.2606L94.2054 34.9903C94.2989 34.5257 95.2509 32.4307 95.6334 31.8478C95.7099 31.7295 95.9564 31.3494 96.1859 31.003C96.7044 30.192 97.7244 29.06 97.9199 29.06C98.0134 29.06 98.1409 29.1445 98.2089 29.2459Z" fill="#FEFEFE"/>
<path d="M94.52 44.984V47.2227H94.9025H95.285V44.984V42.7453H94.9025H94.52V44.984Z" fill="#FEFEFE"/>
<path d="M95.7949 43.041V43.3367H96.4749H97.1549V45.2797V47.2227H97.4949H97.8349V45.2797V43.3367H98.5149H99.1949V43.041V42.7453H97.4949H95.7949V43.041Z" fill="#FEFEFE"/>
<path d="M101.932 43.8184C101.498 43.9704 101.039 44.5026 100.895 45.0095C100.682 45.7951 101.099 46.7328 101.821 47.113C102.331 47.3833 103.02 47.3748 103.555 47.1045C103.929 46.9187 103.955 46.9187 103.955 47.0623C103.955 47.189 104.023 47.2228 104.252 47.2228H104.55V45.491V43.7592H104.286C104.108 43.7592 104.014 43.8099 103.98 43.9113C103.946 44.0549 103.921 44.0549 103.547 43.8775C103.079 43.6494 102.476 43.6241 101.932 43.8184ZM103.258 44.4688C103.742 44.7223 103.938 45.1615 103.827 45.7951C103.717 46.454 102.824 46.8426 102.17 46.5047C101.617 46.2175 101.413 45.4319 101.762 44.8828C102.059 44.4012 102.756 44.2069 103.258 44.4688Z" fill="#FEFEFE"/>
<path d="M106.165 43.8606C105.944 43.9788 105.68 44.2069 105.527 44.4181C105.298 44.7476 105.272 44.8574 105.272 45.4065C105.272 45.9556 105.298 46.0654 105.527 46.3949C105.952 47.0031 106.726 47.2566 107.499 47.0538C107.729 46.9947 107.958 46.9018 108.026 46.8511C108.12 46.775 108.128 46.8088 108.077 47.0538C107.899 47.907 106.896 48.1605 106.284 47.51C106.071 47.2904 105.935 47.2228 105.706 47.2228C105.349 47.2228 105.34 47.2819 105.57 47.7296C105.825 48.2196 106.352 48.4984 107.032 48.5068C107.669 48.5068 107.882 48.4308 108.315 48.0591C108.749 47.6874 108.791 47.4255 108.8 45.3812V43.7592H108.553C108.383 43.7592 108.298 43.8099 108.264 43.9197C108.222 44.0802 108.213 44.0802 107.814 43.8775C107.287 43.6156 106.675 43.6071 106.165 43.8606ZM107.559 44.4773C108.298 44.7814 108.298 45.9725 107.559 46.3189C106.947 46.6145 106.369 46.4118 106.08 45.8204L105.884 45.4318L106.046 45.0348C106.301 44.4181 106.887 44.1985 107.559 44.4773Z" fill="#FEFEFE"/>
<path d="M110.559 43.793C109.828 44.0633 109.446 44.7222 109.497 45.6008C109.531 46.3019 109.837 46.8004 110.415 47.1129C110.738 47.2819 110.891 47.3157 111.367 47.2903C111.834 47.265 112.004 47.2143 112.302 47.0116C112.684 46.7412 113.016 46.2682 112.922 46.1245C112.846 45.9978 112.302 46.0232 112.225 46.1583C112.106 46.3695 111.571 46.6314 111.265 46.6314C110.891 46.6314 110.466 46.378 110.287 46.0485L110.16 45.7866L111.579 45.7697L113.007 45.7444L112.982 45.2375C112.948 44.3252 112.336 43.7507 111.35 43.7001C111.086 43.6832 110.738 43.7254 110.559 43.793ZM111.749 44.4519C111.877 44.5026 112.055 44.6293 112.132 44.7222C112.429 45.077 112.353 45.1108 111.265 45.1108C110.704 45.1108 110.245 45.0855 110.245 45.0601C110.245 45.0348 110.304 44.9081 110.381 44.7814C110.61 44.3928 111.256 44.2407 111.749 44.4519Z" fill="#FEFEFE"/>
<path d="M114.64 43.8774C114.266 44.0632 114.24 44.0632 114.24 43.9196C114.24 43.7929 114.172 43.7591 113.943 43.7591H113.645V45.4909V47.2227H114.028H114.41V46.0738V44.9249L114.699 44.6376C114.92 44.418 115.065 44.3504 115.286 44.3504C116.008 44.3504 116.11 44.5701 116.11 46.0822V47.2227H116.501H116.892L116.858 45.9302C116.833 44.8151 116.799 44.6039 116.646 44.2997C116.314 43.6831 115.405 43.4888 114.64 43.8774Z" fill="#FEFEFE"/>
<path d="M118.532 43.8098C117.852 44.0547 117.47 44.6714 117.47 45.4993C117.47 46.53 118.124 47.2311 119.144 47.2903C119.603 47.324 119.748 47.2903 120.147 47.096C120.64 46.8425 120.844 46.6144 120.929 46.2089C120.972 45.9639 120.972 45.9555 120.632 45.9555C120.368 45.9555 120.275 45.9977 120.241 46.1076C120.173 46.3188 119.586 46.6313 119.255 46.6313C118.872 46.6313 118.498 46.3948 118.311 46.0231C118.107 45.6176 118.107 45.3557 118.328 44.9333C118.507 44.5785 118.881 44.3504 119.28 44.3504C119.62 44.3504 120.105 44.5954 120.207 44.815C120.283 44.9924 120.36 45.0262 120.64 45.0262C120.972 45.0262 120.972 45.0178 120.929 44.7728C120.751 43.9111 119.569 43.4296 118.532 43.8098Z" fill="#FEFEFE"/>
<path d="M121.125 43.793C121.125 43.8775 121.448 44.5955 121.983 45.6853C122.383 46.4963 122.561 46.9609 122.519 47.0707C122.493 47.1552 122.357 47.3664 122.213 47.5269C122.017 47.7465 121.89 47.8141 121.669 47.8141C121.388 47.8141 121.38 47.8226 121.38 48.1605V48.5068L121.779 48.4477C122.621 48.321 122.748 48.1858 123.505 46.547C123.785 45.9218 124.117 45.2122 124.227 44.9841C124.482 44.4435 124.695 43.9282 124.695 43.8352C124.695 43.793 124.542 43.7592 124.355 43.7592C124.057 43.7592 123.998 43.793 123.913 43.9873C123.862 44.1225 123.692 44.4942 123.539 44.8321C123.377 45.1615 123.25 45.4741 123.25 45.5248C123.25 45.5755 123.182 45.7275 123.097 45.8627L122.944 46.1161L122.808 45.8458C122.731 45.6937 122.485 45.17 122.264 44.6716L121.847 43.7592H121.49C121.286 43.7592 121.125 43.7761 121.125 43.793Z" fill="#FEFEFE"/>
</svg>
